<?xml version="1.0" encoding="utf-8"?>
<!-- Generator: Adobe Illustrator 23.0.3, SVG Export Plug-In . SVG Version: 6.00 Build 0)  -->
<svg version="1.1" id="Слой_1" xmlns="http://www.w3.org/2000/svg" xmlns:xlink="http://www.w3.org/1999/xlink" x="0px" y="0px"
	 viewBox="0 0 360 102.5" style="enable-background:new 0 0 360 102.5;" xml:space="preserve">
<style type="text/css">
	.st0{fill:#39597C;}
	.st1{clip-path:url(#SVGID_2_);}
	.st2{fill:none;}
	.st3{fill:#FFFFFF;}
</style>
<g>
	<g>
		<path class="st0" d="M12.6,62.6v21.3c0,1.1,0.1,2.1,0.2,2.8c0.2,0.8,0.4,1.4,0.8,1.9c0.4,0.5,1,1,1.7,1.5H6
			c1.1-0.7,1.8-1.5,2.2-2.4s0.6-2.2,0.6-3.9V61.3c0-1.7-0.2-3-0.6-3.9C7.8,56.5,7,55.7,6,55h7.8c0.2,0.5,0.6,1.1,1.3,2l19.7,25.2
			V61.3c0-1.8-0.2-3.1-0.6-4C33.8,56.5,33,55.7,32,55h9.5c-1.1,0.7-1.9,1.5-2.2,2.4c-0.4,0.9-0.6,2.2-0.6,3.9v30.6
			c-1.1-0.4-2-0.8-2.8-1.2c-0.8-0.5-1.5-1-2.2-1.7s-1.5-1.6-2.4-2.7L12.6,62.6z"/>
		<path class="st0" d="M59.5,64.8c1.9,0,3.7,0.3,5.3,1c1.6,0.6,3,1.6,4.2,2.7s2.1,2.5,2.8,4.1c0.7,1.6,1,3.3,1,5.1
			c0,2.3-0.6,4.5-1.9,6.6c-1.2,2-2.9,3.6-5.1,4.8c-2.1,1.2-4.5,1.8-7,1.8s-4.8-0.6-6.9-1.7c-2.1-1.1-3.7-2.7-4.9-4.6
			c-1.2-2-1.8-4.1-1.8-6.5c0-2.5,0.6-4.7,1.8-6.8c1.2-2,2.9-3.6,5.1-4.7C54.3,65.4,56.8,64.8,59.5,64.8z M58.9,68.4
			c-1.6,0-3,0.4-4.2,1.1s-2.2,1.8-2.9,3.1c-0.7,1.3-1.1,2.8-1.1,4.4c0,2.9,0.8,5.3,2.4,7.3c1.6,1.9,3.6,2.9,6,2.9
			c2.3,0,4.3-0.8,5.9-2.5c1.6-1.6,2.4-3.7,2.4-6.2c0-2-0.4-3.7-1.1-5.3c-0.7-1.6-1.7-2.8-3-3.7C62,68.8,60.5,68.4,58.9,68.4z"/>
		<path class="st0" d="M92.1,65v5c-0.3-0.3-0.6-0.5-1.1-0.7c-0.4-0.1-0.9-0.2-1.6-0.2c-1.2,0-2.2,0.3-3,0.8s-1.5,1.3-1.9,2.3
			s-0.6,2.3-0.6,3.9v8.8c0,1.1,0,2,0.1,2.6s0.2,1,0.5,1.4s0.7,0.8,1.4,1.3H77c0.7-0.5,1.2-1,1.4-1.3c0.3-0.4,0.4-0.8,0.5-1.4
			s0.1-1.4,0.1-2.6V70.8c0-1.7-0.1-2.9-0.3-3.4c-0.2-0.5-0.8-1.1-1.7-1.9h3.7c1.5,0,2.5-0.3,3.2-1v4.4c0.7-1.3,1.6-2.3,2.7-3
			s2.3-1.1,3.5-1.1C90.8,64.9,91.4,64.9,92.1,65z"/>
		<path class="st0" d="M115.6,68v-7.7c0-1.7-0.1-2.9-0.3-3.4c-0.2-0.5-0.8-1.1-1.7-1.9h3.7c1.5,0,2.6-0.3,3.2-1v30.8
			c0,1.1,0,2,0.1,2.6s0.2,1,0.5,1.4s0.7,0.8,1.4,1.3h-6.8V78c0-2.1-0.1-3.5-0.3-4.4c-0.2-0.8-0.6-1.6-1.2-2.4c-1.5-2-3.6-3-6.3-3
			c-1.4,0-2.7,0.4-3.9,1.1c-1.2,0.8-2.1,1.8-2.8,3.1c-0.7,1.3-1,2.8-1,4.5c0,2.9,0.9,5.3,2.6,7.2c1.7,1.9,3.9,2.9,6.5,2.9
			c0.9,0,1.7-0.1,2.4-0.3c0.7-0.2,1.5-0.6,2.5-1.2l-3.2,4.8c-0.8,0.3-1.7,0.4-2.8,0.4c-2,0-3.8-0.3-5.5-0.9s-3.1-1.5-4.3-2.7
			c-1.2-1.2-2.1-2.5-2.8-4.1c-0.6-1.6-1-3.4-1-5.3c0-2.4,0.5-4.6,1.6-6.6s2.6-3.6,4.5-4.7s4-1.7,6.3-1.7c1.6,0,3.1,0.2,4.4,0.7
			C113,66.1,114.3,66.9,115.6,68z"/>
		<path class="st0" d="M142.4,83.7v-6.9c-0.9,0.4-1.6,0.7-1.9,0.8c-0.3,0.1-2,0.5-4.9,1.2c-2.6,0.6-3.8,2-3.8,4.1
			c0,1.3,0.5,2.4,1.5,3.1c1,0.8,2.3,1.1,4,1.1c1.3,0,2.7-0.2,4.1-0.6l-3.1,4c-0.9,0.2-1.9,0.3-2.9,0.3c-2.6,0-4.8-0.7-6.5-2.2
			s-2.5-3.4-2.5-5.8c0-1.1,0.3-2.1,0.8-3.1s1.2-1.7,2.1-2.2c1.3-0.7,3.6-1.4,7.1-2.1c2.3-0.5,3.9-0.9,4.8-1.4
			c0.8-0.5,1.2-1.2,1.2-2.2s-0.5-1.8-1.4-2.4s-2.2-0.9-3.7-0.9c-1.1,0-2.2,0.1-3.3,0.4c-1,0.3-2.4,0.8-4,1.6l3.6-5.4
			c1.2-0.2,2.4-0.3,3.6-0.3c4.5,0,7.6,1.2,9.1,3.6c0.4,0.8,0.7,1.5,0.9,2.3c0.1,0.8,0.2,2.1,0.2,4v6.9c0,1.5,0.1,2.5,0.2,3.1
			c0.1,0.5,0.5,1,1.1,1.5c0.4,0.3,0.9,0.5,1.3,0.6c0.5,0.1,1.1,0.2,1.8,0.2l-2.3,3.5c-2-0.1-3.4-0.4-4.4-0.8s-1.7-1.1-2-2
			C142.5,86.8,142.4,85.5,142.4,83.7z"/>
		<path class="st0" d="M166,85.6l6.4-14.3c0.6-1.3,0.9-2.4,0.9-3.1c0-0.6-0.1-1.1-0.3-1.4s-0.7-0.8-1.4-1.3h7.6L167,92.1
			c-1.5-0.9-2.6-1.6-3.3-2.1c-0.6-0.5-1.2-1-1.5-1.7c-0.4-0.6-0.9-1.6-1.4-2.9L154.5,71c-0.8-1.8-1.4-3-1.8-3.5
			c-0.4-0.5-1.3-1.2-2.7-2h3.5c1,0,1.8-0.1,2.3-0.2s1.1-0.4,1.6-0.8c0.1,0.9,0.3,1.7,0.6,2.5L166,85.6z"/>
		<path class="st0" d="M189,64.6v20.3c0,1.1,0,2,0.1,2.6s0.2,1,0.5,1.4s0.7,0.8,1.4,1.3h-8.9c0.7-0.5,1.2-1,1.4-1.3
			c0.3-0.4,0.4-0.8,0.5-1.4s0.1-1.4,0.1-2.6V70.8c0-1.7-0.1-2.9-0.3-3.4s-0.8-1.1-1.7-1.9h3.7C187.3,65.6,188.4,65.2,189,64.6z
			 M186.5,55.7c0.6,0,1.2,0.1,1.7,0.4c0.5,0.3,0.9,0.7,1.2,1.2s0.4,1.1,0.4,1.7c0,0.9-0.3,1.7-1,2.4c-0.7,0.6-1.4,0.9-2.3,0.9
			c-0.9,0-1.7-0.3-2.3-1c-0.7-0.6-1-1.4-1-2.3c0-0.6,0.1-1.2,0.4-1.7c0.3-0.5,0.7-0.9,1.2-1.2C185.3,55.8,185.9,55.7,186.5,55.7z"/>
		<path class="st0" d="M202,64.6V69c1.3-1.5,2.6-2.6,3.8-3.2s2.6-0.9,4.1-0.9c1.7,0,3.3,0.3,4.8,1s2.6,1.6,3.4,2.8
			c0.5,0.7,0.8,1.6,1,2.6s0.3,2.5,0.3,4.7v9c0,1.1,0,2,0.1,2.6s0.3,1,0.5,1.4c0.3,0.4,0.7,0.8,1.4,1.3h-8.9c0.7-0.5,1.2-1,1.4-1.3
			c0.3-0.3,0.4-0.8,0.5-1.4s0.1-1.4,0.1-2.6v-8.5c0-1.4-0.1-2.5-0.3-3.3s-0.5-1.5-0.9-2c-0.5-0.7-1.2-1.2-2.2-1.6s-2-0.6-3.1-0.6
			c-1.9,0-3.3,0.5-4.3,1.4s-1.5,2.2-1.5,4v10.7c0,1.1,0,2,0.1,2.6s0.2,1,0.5,1.4s0.7,0.8,1.4,1.3h-8.9c0.7-0.5,1.2-1,1.4-1.3
			c0.3-0.4,0.4-0.8,0.5-1.4s0.1-1.4,0.1-2.6V70.8c0-1.7-0.1-2.9-0.3-3.4s-0.8-1.1-1.7-1.9h3.4c0.8,0,1.4-0.1,1.9-0.2
			C201.2,65.2,201.7,64.9,202,64.6z"/>
		<path class="st0" d="M246.4,68v-7.7c0-1.7-0.1-2.9-0.3-3.4s-0.8-1.1-1.7-1.9h3.7c1.5,0,2.6-0.3,3.2-1v30.8c0,1.1,0,2,0.1,2.6
			s0.2,1,0.5,1.4s0.7,0.8,1.4,1.3h-6.8V78c0-2.1-0.1-3.5-0.3-4.4c-0.2-0.8-0.6-1.6-1.2-2.4c-1.5-2-3.6-3-6.3-3
			c-1.4,0-2.7,0.4-3.9,1.1c-1.2,0.8-2.1,1.8-2.8,3.1c-0.7,1.3-1,2.8-1,4.5c0,2.9,0.9,5.3,2.6,7.2c1.7,1.9,3.9,2.9,6.5,2.9
			c0.9,0,1.7-0.1,2.4-0.3c0.7-0.2,1.5-0.6,2.5-1.2l-3.2,4.8c-0.8,0.3-1.7,0.4-2.8,0.4c-2,0-3.8-0.3-5.5-0.9s-3.1-1.5-4.3-2.7
			s-2.1-2.5-2.8-4.1s-1-3.4-1-5.3c0-2.4,0.5-4.6,1.6-6.6s2.6-3.6,4.5-4.7s4-1.7,6.3-1.7c1.6,0,3.1,0.2,4.4,0.7
			C243.8,66.1,245.1,66.9,246.4,68z"/>
	</g>
	<g>
		<g>
			<defs>
				<rect id="SVGID_1_" x="263" y="8.4" width="91.1" height="85.7"/>
			</defs>
			<clipPath id="SVGID_2_">
				<use xlink:href="#SVGID_1_"  style="overflow:visible;"/>
			</clipPath>
			<g class="st1">
				<path class="st2" d="M290.3,10.6c5.4-1.5,13.8-3,23.8-0.6c6.4,1.5,10.6,3.7,16.9,8.4c1.2,0.9,2,1.6,2.5,2.2
					c2.9,0.2,6.2,1.1,9.4,2.5c6.9,2.9,10.6,7.5,11,12.7c0.1,7-6.4,13.5-8.9,15.8c-0.1,0.1-0.2,0.3-0.3,0.4c0,0,0,0-0.1,0
					c-0.3,0.3-0.5,0.4-0.5,0.4c0-0.9-0.3-1.7-0.7-2.5c-1-1.5-2.8-3.4-5.8-3.7c-0.4,0-0.8,0-1.3,0c-2.6,9.2-7.8,27-15,47.9h33.8V3.8
					h-92.2v16.5C276.1,14.8,280.7,13.2,290.3,10.6z"/>
				<path class="st0" d="M331.2,46.4c-0.4,1.5-0.8,3-1.2,4.4c-2.7,8.8-4,10.9-7.3,21.8c-1.4,4.7-4,12.8-7,21.5h5.6
					c7.3-20.9,12.4-38.7,15-47.9C334.4,46.2,332,46.3,331.2,46.4z"/>
				<path class="st0" d="M291.4,15.3c6.1-1.3,9.6-1.9,15.5-1.5c8.6,0.6,13.3,2.7,18.1,6.3c0.7,0.5,1.3,1,1.8,1.5
					c0.8-0.3,1.6-0.6,2.4-0.7c0.6-0.1,1.1-0.2,1.7-0.3c0.8-0.1,1.7-0.1,2.6,0c-0.5-0.6-1.3-1.3-2.5-2.2c-6.3-4.7-10.5-6.9-16.9-8.4
					c-10-2.4-18.4-0.9-23.8,0.6c-9.6,2.6-14.2,4.2-27.4,9.8v5c4.1-1.8,7.9-3.4,15.6-6.1C283,17.6,287.8,16.1,291.4,15.3z"/>
				<path class="st3" d="M330,50.8c0.4-1.4,0.9-2.9,1.2-4.4c-0.1,0-0.2,0-0.2,0c-5.5,0.4-17.9,2.3-17.9,2.3c-0.3,0-0.5,0.1-0.8,0.1
					c-7.4,1.4-13.5,5-17.8,5.3c-4.2,0.3-5.4-5.5-2.5-7.9l15.7-3.1c0.4-0.1,0.9-0.3,1.3-0.5c0.2-1,0.6-2,1.2-2.8
					c2.7-3.8,9.2-12.1,9.2-12.1c2.5-3,4.9-5,7.4-6.1c-0.6-0.5-1.2-1-1.8-1.5c-4.8-3.6-9.5-5.7-18.1-6.3c-5.9-0.4-9.4,0.2-15.5,1.5
					c-3.6,0.8-8.4,2.3-12.9,3.9c-7.6,2.7-11.5,4.3-15.6,6.1v68.8h52.8c3-8.7,5.6-16.8,7-21.5C326,61.7,327.3,59.6,330,50.8z
					 M286.6,22c4.8-0.7,3.5-0.4,2.7-3.5c7.4,5.9,14.7,4.5,16.3,0.9c3,2,9.5,4.2,11,5.1c-0.6-0.2-5.3,0.8-7.8,6.8
					c-1.6,3.8-6.4,4.5-11.8,2.8c-5.5-1.6-5.2-6.3-6.5-8.6C289.4,23.2,281.8,22.7,286.6,22z"/>
				<path class="st0" d="M297,34.1c5.4,1.7,10.2,1,11.8-2.8c2.5-6,7.2-7,7.8-6.8c-1.5-0.9-8-3.1-11-5.1c-1.6,3.6-8.9,5-16.3-0.9
					c0.8,3.1,2.1,2.8-2.7,3.5s2.8,1.2,3.9,3.5C291.8,27.8,291.5,32.5,297,34.1z M297.1,26.4c0-0.9,0.7-1.4,1.3-1.4
					c0.6,0,1.1,0.7,1.1,1.5c-0.1,0.8-0.7,1.1-1.3,1.1C297.6,27.5,297,27.1,297.1,26.4z M295.3,25.3c1.7,10,11,6,10.5-0.4L307,25
					c0,0,0,2.9-0.7,5.2c-4.2,5.5-9.6,2.6-11-0.6C294,26.7,294.1,25.6,295.3,25.3z"/>
				<path class="st3" d="M306.3,30.2C307,27.9,307,25,307,25l-1.2-0.1c0.5,6.4-8.8,10.4-10.5,0.4c-1.2,0.3-1.3,1.4,0,4.3
					C296.7,32.8,302.1,35.7,306.3,30.2z"/>
				<path class="st3" d="M298.2,27.6c0.6,0,1.2-0.3,1.3-1.1c0-0.8-0.5-1.5-1.1-1.5c-0.6,0-1.3,0.5-1.3,1.4
					C297,27.1,297.6,27.5,298.2,27.6z"/>
				<path class="st3" d="M338.7,46.3c-0.3,0-0.6-0.1-1-0.1c2.9,0.3,4.7,2.2,5.8,3.7C342.4,47.9,340.3,46.4,338.7,46.3z"/>
				<path class="st3" d="M344.7,52c0.1-0.1,0.2-0.3,0.3-0.4C344.9,51.7,344.7,51.8,344.7,52C344.7,52,344.7,52,344.7,52z"/>
				<path class="st3" d="M316.2,42.6c24.5-8.9,28.3,2.3,28.6,6.9c0.7-0.9,5.4-6.7,5.2-13.4c-0.3-3.5-2.5-6.7-8.6-9.4
					c-3.7-1.6-7.6-2.4-10.2-2.1c-0.4,0-0.8,0.1-1.1,0.2H330h-0.1c-2.1,0.3-4.5,1.8-7.6,5.5c-3,3.3-7.3,8.5-9.2,11.1
					c-1.9,2.6-1.6,4.7-0.3,5.3c1.3,0.6,12.7-1.9,18.4-2.3c2.6-0.2,4.8-0.3,6.6-0.1c0.6,0.1,1.2,0.2,1.7,0.4
					C338.4,41.9,334.3,37.6,316.2,42.6z"/>
				<path class="st3" d="M309,42.6c-0.4,0.2-0.8,0.3-1.3,0.5L292,46.2c-2.9,2.4-1.7,8.2,2.5,7.9c4.3-0.4,10.4-3.9,17.8-5.3
					C309.4,48.7,308.3,45.6,309,42.6z"/>
				<path class="st0" d="M330.9,20.6c-0.6,0.1-1.1,0.2-1.7,0.3c-0.8,0.1-1.6,0.4-2.4,0.7c-2.5,1.1-4.9,3.1-7.4,6.1
					c0,0-6.5,8.3-9.2,12.1c-0.6,0.8-1,1.8-1.2,2.8c-0.6,2.9,0.4,6.1,3.3,6.1c0.3,0,0.5,0,0.8-0.1c0,0,12.4-1.9,17.9-2.3
					c0,0,0.1,0,0.2,0c0.7,0,3.1-0.2,5.1-0.2c0.5,0,0.9,0,1.3,0c0.4,0,0.8,0,1,0.1c1.6,0.1,3.7,1.6,4.7,3.6c0.4,0.8,0.6,1.6,0.7,2.5
					c0,0,0.2-0.2,0.5-0.4c0.1-0.1,0.3-0.2,0.4-0.4c2.5-2.2,8.9-8.7,8.9-15.8c-0.4-5.2-4.1-9.8-11-12.7c-3.2-1.4-6.5-2.3-9.4-2.5
					C332.6,20.5,331.7,20.5,330.9,20.6z M344.6,51.2c-1.6-5-4.9-6-4.9-6c-0.1-0.2-0.1-0.3-0.2-0.5c-0.5-0.2-1.1-0.3-1.7-0.4
					c-1.8-0.2-4-0.1-6.6,0.1c-5.7,0.4-17.1,2.9-18.4,2.3c-1.3-0.6-1.6-2.7,0.3-5.3c1.9-2.6,6.2-7.8,9.2-11.1
					c3.1-3.7,5.5-5.2,7.6-5.5h0.1h0.1c0.3-0.1,0.7-0.2,1.1-0.2c2.6-0.3,6.5,0.5,10.2,2.1c6.1,2.7,8.3,5.9,8.6,9.4
					c0.2,6.6-4.5,12.5-5.2,13.4C344.9,50.8,344.7,51.6,344.6,51.2z"/>
				<path class="st0" d="M316.2,42.6c18.1-5,22.2-0.7,23.3,2.1c0.1,0.2,0.1,0.3,0.2,0.5c0,0,3.3,1,4.9,6c0.1,0.4,0.3-0.4,0.2-1.7
					C344.5,44.9,340.7,33.7,316.2,42.6z"/>
			</g>
		</g>
	</g>
</g>
</svg>
