<svg width="800" height="550" xmlns="http://www.w3.org/2000/svg">
 <!-- Created with SVG Editor - http://github.com/mzalive/SVG Editor/ -->

 <g>
  <title>background</title>
  <rect fill="#fff" id="canvas_background" height="552" width="802" y="-1" x="-1"/>
  <g display="none" overflow="visible" y="0" x="0" height="100%" width="100%" id="canvasGrid">
   <rect fill="url(#gridpattern)" stroke-width="0" y="0" x="0" height="100%" width="100%"/>
  </g>
 </g>
 <g>
  <title>Layer 1</title>
  <style type="text/css">.st0{fill:#00547C;}
	.st1{fill-rule:evenodd;clip-rule:evenodd;fill:#00547C;}</style>
  <style type="text/css">.st0{fill:#00547C;}
	.st1{fill-rule:evenodd;clip-rule:evenodd;fill:#00547C;}
	.st2{fill:#FFFFFF;}</style>
  <g id="svg_92">
   <g transform="matrix(1.08612, 0, 0, 1.06384, -1065.81, -1042.52)" id="svg_49"/>
   <g transform="matrix(1.08612, 0, 0, 1.06384, -1065.81, -1042.52)" id="svg_51">
    <g id="svg_52">
     <path id="svg_53" d="m982.844747,1348.436467c7,0 14,0.1 21,0c1.6,0 2,0.5 2,2c0,1.7 -0.2,2.8 -2.2,3.3c-2.3,0.6 -2.9,2.6 -2.9,4.8c0,4.8 0,9.7 0,14.5c0,4.9 0,9.8 0,14.7c0,1.1 0.2,1.6 1.4,1.6c17.3,0 34.5,0 51.8,0c1.2,0 1.5,-0.4 1.5,-1.5c0,-9.6 0,-19.2 0,-28.9c0,-3.6 -1,-5.2 -4.2,-5.6c-0.7,-0.1 -0.8,-0.5 -0.9,-1.1c-0.3,-3.8 -0.4,-3.8 3.5,-3.8c5.9,0 11.8,0 17.7,0c1.3,0 1.8,0.3 1.9,1.8c0,1.9 -0.2,3.3 -2.5,3.6c-1.4,0.2 -2.2,1.4 -2.4,2.8c-0.1,1.1 -0.3,2.1 -0.3,3.2c0,27.3 0,54.5 0,81.8c0,0.7 0.1,1.3 0.1,2c0.2,2.3 1.3,3.9 3.7,4.5c2.4,0.6 1.1,2.5 1.3,3.9c0.1,1.4 -1.2,0.8 -1.9,0.9c-6.5,0 -12.9,0 -19.4,0.1c-1.5,0 -1.9,-0.5 -1.7,-1.8c0.1,-0.5 0.1,-1.1 0,-1.6c-0.1,-0.8 0.3,-1.1 1.1,-1.3c3.2,-0.8 4,-1.9 4,-5.2c0,-14.1 0,-28.2 0,-42.3c0,-1.5 -0.5,-1.7 -1.8,-1.7c-17,0 -34.1,0 -51.1,0c-1.4,0 -1.8,0.3 -1.8,1.8c0.1,14 0,28 0,42c0,3.5 0.7,4.4 3.9,5.5c2.2,0.7 0.9,2.5 1.1,3.8c0.2,1.3 -1,0.9 -1.7,0.9c-7.1,0 -14.1,0 -21.2,0c0,-1.6 0,-3.1 0,-4.7c0.3,-0.3 0.7,-0.5 1.1,-0.6c2.6,-0.7 3.4,-2.6 3.4,-5.2c0,-27.7 0,-55.4 0,-83.1c0,-2.7 -0.9,-4.5 -3.6,-5.3c-0.3,-0.1 -0.6,-0.3 -0.9,-0.5c0,-2 0,-3.7 0,-5.3z" class="st0"/>
     <path id="svg_54" d="m1276.844747,1485.336467c2.2,-0.6 4.3,-0.6 6.5,0c-2.2,0 -4.3,0 -6.5,0z" class="st0"/>
     <path id="svg_55" d="m1600.644747,1408.436467c5.3,0 10.5,0 15.8,0c1.3,0 1.9,-0.2 1.9,-1.7c-0.1,-4.8 0,-9.6 0,-14.3c0,-3 -1,-4.3 -3.9,-5.2c-1.9,-0.6 -0.8,-2.2 -1,-3.3c-0.2,-1.1 0.8,-0.9 1.5,-0.9c6.4,0 12.8,0 19.2,0c1.1,0 1.4,0.3 1.4,1.4c0.1,1.7 0,2.9 -2.2,3.1c-2,0.2 -2.9,1.6 -3.1,3.6c-0.1,0.7 -0.1,1.3 -0.1,2c0,16.6 0,33.2 0,49.8c0,4.3 0.3,4.8 4.4,5.9c2,0.6 0.8,2.1 1,3.1c0.2,1.2 -0.8,0.9 -1.5,0.9c-6.3,0 -12.7,0 -19,0c-0.8,0 -1.8,0.2 -1.6,-1.1c0.2,-1.1 -0.9,-2.6 1.1,-3.1c2.9,-0.8 3.8,-1.9 3.8,-5c0,-8.4 0,-16.9 0,-25.3c0,-1.2 -0.3,-1.6 -1.6,-1.6c-10.6,0 -21.3,0 -31.9,0c-1.4,0 -1.7,0.4 -1.7,1.7c0.1,8.2 0,16.4 0,24.6c0,3.9 0.4,4.4 4.1,5.8c1.7,0.6 0.7,2 0.9,3.1c0.2,1.1 -0.8,1 -1.5,1c-6.3,0 -12.7,0 -19,0c-0.7,0 -1.7,0.2 -1.4,-1c0.2,-1.1 -1,-2.6 0.9,-3.2c3.4,-1 4.1,-1.9 4.1,-5.5c0,-16.7 0,-33.5 0,-50.2c0,-4 -0.8,-4.8 -4.6,-5.8c-2,-0.5 -0.7,-2.1 -1,-3.1c-0.2,-1 0.5,-1.1 1.3,-1.1c6.6,0 13.3,0 19.9,0c1.1,0 1.2,0.4 1.3,1.4c0.1,1.7 -0.1,2.9 -2.2,3.3c-1.7,0.3 -2.7,1.6 -2.8,3.3c-0.4,5.5 -0.1,11.1 -0.1,16.7c0,1.2 1,0.8 1.6,0.8c5.4,-0.1 10.7,-0.1 16,-0.1z" class="st0"/>
     <path id="svg_56" d="m1534.744747,1445.736467c-2,1.4 -3.7,2.7 -5.4,3.8c-8.1,5.1 -16.9,6.3 -26.2,3.8c-8.8,-2.4 -13,-8.7 -14.7,-17.2c-0.5,-2.6 -0.7,-5.3 -0.7,-8c0,-11.5 0,-23.1 0,-34.6c0,-4.4 -0.4,-4.9 -4.5,-6.3c-1.9,-0.7 -0.6,-2.3 -0.9,-3.4c-0.2,-1 0.7,-0.9 1.3,-0.9c4.7,0 9.4,0.1 14.2,0c1.4,0 1.7,0.4 1.7,1.7c0,13.8 -0.1,27.6 0,41.4c0,3.7 -0.1,7.4 1.5,10.9c3.1,6.8 10.4,10 18.2,7.7c5.8,-1.7 10.4,-5.4 14.8,-9.4c0.6,-0.5 0.5,-1.1 0.5,-1.8c0,-13.7 0,-27.4 0,-41.1c0,-3.2 -0.9,-4.4 -4.1,-5.1c-2.3,-0.5 -0.9,-2.2 -1.2,-3.3c-0.3,-1.3 0.8,-1 1.5,-1c4.7,0 9.3,0.1 14,0c1.4,0 1.6,0.5 1.6,1.8c0,18.8 0,37.7 0,56.5c0,1.4 0,2.7 0.2,4.1c0.4,2.2 1.8,3.2 3.9,3.4c2.2,0.2 1.5,1.9 1.5,3.1c0.1,1.5 -1.2,1 -1.9,1.1c-4.7,0 -9.3,0 -14,0c-1.2,0 -1.6,-0.3 -1.5,-1.5c0.2,-1.9 0.2,-3.6 0.2,-5.7z" class="st0"/>
     <path id="svg_57" d="m1362.644747,1347.036467c0.1,6 -0.6,11.9 -0.8,17.9c0,1.5 -1,1.3 -2,1.3c-1.2,0.1 -1.2,-0.6 -1.2,-1.5c0.5,-7.1 1,-14.2 1.5,-21.3c0.1,-0.9 0.4,-1.2 1.3,-1.3c2.8,-0.1 2.8,-0.2 3.7,2.6c1.9,5.4 3.9,10.7 5.4,16.2c0.6,-0.1 0.5,-0.5 0.6,-0.9c1.6,-5.6 3.8,-10.9 5.8,-16.4c0.5,-1.3 3.1,-2.2 4.3,-1.5c0.5,0.3 0.3,0.8 0.4,1.3c0.5,7 0.9,13.9 1.4,20.9c0.1,0.9 0.2,1.8 -1.3,1.7c-1.2,-0.1 -1.9,-0.2 -1.9,-1.6c-0.2,-5.7 -0.5,-11.3 -0.8,-17c-0.4,-0.3 -0.1,-0.8 -0.2,-1.4c0,0.7 -0.2,1 -0.5,1.4c-2,5.7 -4.1,11.3 -6.1,17c-0.3,0.9 -0.6,1.6 -1.8,1.5c-1.1,0 -1.4,-0.7 -1.6,-1.5c-1.8,-5.8 -4.2,-11.4 -5.6,-17.4c-0.2,0.3 0,-0.7 -0.6,0z" class="st0"/>
     <path id="svg_58" d="m1502.344747,1347.636467c-2.5,4.2 -5.1,8.3 -7.7,12.4c-1,1.6 -2.1,3.1 -2.9,4.7c-0.8,1.7 -2.2,1.5 -3.6,1.5c-0.8,0 -0.7,-0.6 -0.7,-1.2c0,-7.2 0,-14.3 0,-21.5c0,-1.3 0.6,-1.3 1.5,-1.3c1.1,0 1.5,0.3 1.4,1.4c-0.1,4.8 0,9.6 -0.1,14.3c0,1.1 0,2.2 0.1,3.4c3,-5.4 6.5,-10.6 9.7,-15.8c0.4,-0.7 1,-1.4 1.3,-2.1c0.8,-1.7 2.2,-1.1 3.4,-1.1c0.7,0 0.5,0.7 0.5,1.1c0,7.2 0,14.3 0,21.5c0,1.3 -0.8,1.2 -1.6,1.2c-1.1,0.1 -1.4,-0.3 -1.4,-1.4c0.1,-5.6 0.1,-11.3 0.1,-17.1z" class="st0"/>
     <path id="svg_59" d="m1465.144747,1361.336467c3.5,-6 7.4,-11.6 10.9,-17.4c0.8,-1.3 1.6,-1.8 3.2,-1.7c0.8,0.1 1.1,0.3 1.1,1.2c0,7.2 0,14.5 0,21.7c0,1.4 -0.9,1.1 -1.7,1.1c-1,0.1 -1.4,-0.3 -1.3,-1.3c0.1,-5.3 0.1,-10.6 0.1,-15.9c0,-0.5 0,-1 -0.2,-1.6c-2.1,3.9 -4.5,7.6 -6.8,11.3c-1.4,2.2 -2.7,4.3 -4.1,6.5c-0.5,0.9 -2.8,1.4 -3.6,0.9c-0.4,-0.3 -0.3,-0.7 -0.3,-1.1c0,-7.2 0,-14.3 0,-21.5c0,-1.3 0.7,-1.2 1.6,-1.3c1.1,-0.1 1.4,0.3 1.4,1.4c-0.1,5.6 -0.1,11.2 -0.1,16.8c-0.2,0.4 -0.2,0.7 -0.2,0.9z" class="st0"/>
     <path id="svg_60" d="m1455.144747,1354.436467c0,3.5 -0.1,6.9 0,10.4c0,1.5 -0.7,1.4 -1.7,1.5c-1.2,0 -1.6,-0.3 -1.5,-1.5c0.1,-2.7 0,-5.5 0,-8.2c0,-1.1 -0.2,-1.5 -1.4,-1.4c-2.9,0.1 -5.9,0.1 -8.8,0c-1.1,0 -1.3,0.4 -1.3,1.4c0.1,2.8 0,5.6 0,8.4c0,1.4 -0.7,1.4 -1.7,1.4c-1.1,0 -1.6,-0.1 -1.6,-1.4c0.1,-7.1 0.1,-14.1 0,-21.2c0,-1.3 0.6,-1.4 1.6,-1.4c1,0 1.7,0 1.6,1.4c-0.1,2.4 0,4.8 0,7.2c0,1 0.2,1.5 1.4,1.5c2.9,-0.1 5.9,-0.1 8.8,0c1.1,0 1.3,-0.4 1.3,-1.3c-0.1,-2.4 0.1,-4.9 0,-7.3c-0.1,-1.4 0.7,-1.3 1.7,-1.4c1,0 1.7,0 1.6,1.4c0,3.3 0,6.9 0,10.5z" class="st0"/>
     <path id="svg_61" d="m1389.544747,1354.236467c0,-3.5 0,-7 0,-10.6c0,-1.1 0.3,-1.4 1.4,-1.4c4.8,0.1 9.7,0.1 14.5,0c1.1,0 1.6,0.2 1.6,1.5c-0.1,7 -0.1,14 0,20.9c0,1.3 -0.5,1.6 -1.7,1.6c-1.3,0 -1.6,-0.4 -1.6,-1.6c0.1,-5.9 0,-11.8 0.1,-17.7c0,-1.7 -0.5,-2 -2,-1.9c-2.3,0.1 -4.7,0.1 -7,0c-1.6,-0.1 -2.1,0.3 -2.1,2c0.1,5.8 0,11.7 0.1,17.5c0,1.3 -0.3,1.7 -1.7,1.7c-1.3,0 -1.6,-0.5 -1.6,-1.7c0,-3.3 0,-6.8 0,-10.3z" class="st0"/>
     <path id="svg_62" d="m1255.844747,1354.336467c0,-3.5 0,-7 0,-10.6c0,-1.1 0.3,-1.5 1.4,-1.4c4.9,0.1 9.8,0 14.7,0c1,0 1.4,0.2 1.4,1.3c0,7.1 -0.1,14.2 0,21.3c0,1.4 -0.7,1.4 -1.7,1.4c-1,0 -1.7,-0.1 -1.6,-1.4c0.1,-6 0,-12.1 0.1,-18.1c0,-1.3 -0.3,-1.8 -1.7,-1.7c-2.6,0.1 -5.1,0.1 -7.7,0c-1.4,-0.1 -1.7,0.5 -1.7,1.8c0.1,5.9 0,11.8 0.1,17.7c0,1.3 -0.2,1.8 -1.7,1.8c-1.4,0 -1.7,-0.6 -1.6,-1.8c0,-3.5 0,-6.9 0,-10.3z" class="st0"/>
     <path id="svg_63" d="m1248.844747,1354.336467c0,3.5 -0.1,7 0,10.6c0,1.3 -0.6,1.4 -1.6,1.4c-1,0 -1.6,-0.1 -1.6,-1.4c0.1,-6 0,-12.1 0.1,-18.1c0,-1.3 -0.3,-1.8 -1.7,-1.7c-2.6,0.1 -5.3,0.1 -7.9,0c-1.3,0 -1.6,0.4 -1.6,1.6c0.1,6 0,11.9 0,17.9c0,1.1 -0.1,1.7 -1.5,1.7c-1.4,0 -1.7,-0.4 -1.7,-1.7c0.1,-6.9 0.1,-13.7 0,-20.6c0,-1.4 0.4,-1.7 1.7,-1.7c4.7,0.1 9.4,0.1 14.2,0c1.3,0 1.6,0.4 1.6,1.6c0,3.4 0,6.9 0,10.4z" class="st0"/>
     <path id="svg_64" d="m1329.144747,1366.036467c-3.3,0.5 -3.3,0.5 -4.4,-2.4c-0.6,-1.7 -1.2,-3.4 -1.9,-5c-1.1,-2.3 -3,-3.3 -5.5,-3.3c-1,0 -1.2,0.4 -1.2,1.3c0,2.7 -0.1,5.4 0,8.1c0,1.3 -0.5,1.5 -1.7,1.6c-1.3,0 -1.4,-0.5 -1.4,-1.6c0,-7 0,-14 0,-20.9c0,-1.2 0.4,-1.5 1.5,-1.5c1.1,0 1.6,0.2 1.6,1.5c-0.1,2.6 0,5.1 0,7.7c0,0.5 -0.2,1.2 0.5,1.4c0.6,0.1 0.8,-0.4 1.1,-0.8c1.9,-2.4 3.8,-4.9 5.7,-7.4c1.9,-2.5 1.9,-2.5 5.6,-2.2c-3,3.6 -5.8,7.1 -8.9,10.8c4.9,0.8 6.1,4.7 7.4,8.5c0.5,1.4 1.1,2.8 1.6,4.2z" class="st0"/>
     <path id="svg_65" d="m1218.744747,1356.436467c1.3,-3.6 2.5,-7 3.8,-10.3c0.3,-0.7 0.5,-1.4 0.8,-2.2c0.6,-1.6 1.6,-2.1 3.2,-1.7c1.1,0.3 0.4,0.9 0.2,1.4c-1.8,4.5 -3.7,9.1 -5.5,13.6c-0.9,2.1 -1.8,4.2 -3.1,6c-1.5,2.2 -3.5,3.5 -6.3,3.3c-0.6,0 -1.3,-0.1 -1.1,-1c0.1,-0.7 -0.2,-1.8 1.2,-1.8c2.6,0 3.7,-1.8 4.8,-3.8c0.4,-0.8 0.1,-1.5 -0.2,-2.2c-2.3,-4.5 -4.5,-9.1 -6.7,-13.7c-0.3,-0.6 -1.3,-1.2 -0.4,-1.9c0.8,-0.6 3.1,0.1 3.4,0.9c1.8,4 3.6,7.9 5.4,11.9c0,0.5 0.2,0.9 0.5,1.5z" class="st0"/>
     <path id="svg_66" d="m1174.044747,1354.236467c0,-3.5 0,-6.9 0,-10.4c0,-1.2 0.3,-1.6 1.5,-1.5c3.3,0.1 6.6,0.1 9.9,0c1,0 1.5,0.2 1.5,1.3c0,1.3 -0.5,1.5 -1.6,1.5c-2.1,-0.1 -4.2,0.1 -6.3,-0.1c-1.6,-0.1 -1.8,0.5 -1.8,1.9c0.1,5.9 0,11.7 0,17.6c0,1.1 0,1.8 -1.5,1.8c-1.3,0 -1.8,-0.3 -1.8,-1.7c0.1,-3.5 0.1,-7 0.1,-10.4z" class="st0"/>
     <path id="svg_67" d="m1496.644747,1341.236467c-2.2,0 -3.8,-0.4 -4.6,-2.3c-0.2,-0.4 -0.8,-1.2 0.1,-1.5c0.6,-0.2 1.5,-0.4 2.1,0.4c1.8,2.4 2.3,2.4 4.1,0c0.6,-0.8 1.5,-0.5 2.1,-0.3c0.9,0.3 0.2,1 0.1,1.5c-0.6,1.4 -2,2.2 -3.9,2.2z" class="st0"/>
     <path id="svg_68" d="m1378.444747,1347.736467c0,-0.6 0.2,-1 0.5,-1.5c0.3,0.5 0.2,1 0.1,1.5c-0.2,0 -0.4,0 -0.6,0z" class="st0"/>
     <path id="svg_69" d="m1362.644747,1347.036467c0,-0.3 -0.2,-0.9 0.2,-0.9c0.6,0 0.5,0.7 0.5,1.1c-0.3,0 -0.5,-0.1 -0.7,-0.2z" class="st0"/>
     <path id="svg_70" d="m1688.744747,1383.336467c-8,0 -15.4,2 -22,6.4c-14.5,9.5 -22.4,27 -16.2,44.7c3.4,9.6 9.7,16.2 19.8,18.3c11,2.3 21.2,0.7 29.5,-7.7c0,0 0.1,0 0.3,-0.1c1.1,2.2 1.7,4.6 2.3,7.1c2.4,9.9 -1.8,17.8 -11.2,21.6c-5.7,2.3 -11.6,2.6 -17.6,1.9c-4,-0.5 -7.7,-1.7 -10.9,-4.1c-2.8,-2.1 -3.4,-4.5 -2.1,-7.7c0.2,-0.4 0.4,-0.7 0.6,-1.1c0.6,-1.6 -1.1,-1.8 -1.6,-2.6c-0.5,-0.7 -0.9,-0.2 -1.3,0.2c-3.6,3.3 -7.1,6.6 -10.7,9.8c-0.6,0.6 -0.7,1 -0.1,1.6c6.2,6.2 13.1,11.1 21.9,12.9c1.8,0.4 3.7,0.2 5.3,1c0.2,0 0.5,0 0.7,0c2.2,-0.3 4.3,-0.3 6.5,0c0.2,0 0.5,0 0.7,0c3.1,-0.4 6.3,-0.4 9.3,-1.2c5.8,-1.7 11.1,-4 15.4,-8.3c7,-7 9.4,-15.4 7.2,-24.9c-1.2,-5.3 -1.9,-10.6 -1.8,-16.1c0.1,-12.2 0,-24.5 0,-36.7c0,-1.9 0,-3.8 0,-5.7c0.1,-2.5 0.8,-3.5 3.1,-4.4c0.5,-0.2 1,-0.4 1.4,-0.8c0,-1.3 0,-2.6 0,-3.9c-9.5,-0.3 -19,-0.3 -28.5,-0.2zm10.1,52.1c-2,2 -4.2,3.9 -6.5,5.6c-5.4,3.8 -11.4,4.4 -17.6,2.8c-5.2,-1.3 -8.6,-4.8 -10.7,-9.5c-4.6,-10.3 -1.7,-26.5 6.4,-34.5c4.5,-4.5 10.1,-6.3 16.2,-7.3c4.1,-0.7 8.2,-0.3 12.3,-0.4c1.4,0 1.2,0.8 1.2,1.6c0,6.6 0,13.1 0,19.7c0,6.3 0,12.7 0,19c-0.1,1.3 -0.4,2.2 -1.3,3z" class="st0"/>
     <path id="svg_71" d="m1318.844747,1384.036467c0.2,-1.2 -0.9,-0.8 -1.5,-0.8c-6.9,0 -13.7,0 -20.6,0.1c-5.2,0.1 -10.5,-0.1 -15.7,1c-19,4.1 -35.2,23.7 -30.3,46c2.8,12.9 11.5,21.1 22.4,22.7c10.4,1.6 19.9,0.1 27.7,-7.6c0.2,-0.2 0.4,-0.5 0.8,-0.3c1,2.5 1.8,5.1 2.4,7.8c1.9,9.2 -2.2,16.8 -10.8,20.4c-6.6,2.8 -13.4,3.1 -20.4,1.8c-3.2,-0.6 -6.1,-1.8 -8.7,-3.7c-2.9,-2.1 -3.6,-4.5 -2.2,-7.8c0.2,-0.4 0.5,-0.8 0.6,-1.3c0.3,-1.3 -1,-1.5 -1.6,-2.3c-0.4,-0.5 -0.8,-0.5 -1.4,0c-3.6,3.4 -7.3,6.7 -11,10.1c-0.5,0.4 -0.6,0.8 -0.1,1.3c6.1,6.3 13,11.2 21.8,13c1.9,0.4 3.9,0.2 5.7,1c0.2,0 0.5,0 0.7,0c2.2,-0.3 4.3,-0.3 6.5,0c0.2,0 0.5,0 0.7,0c0.2,-0.5 0.7,-0.3 1.1,-0.4c5.8,-0.6 11.4,-2 16.6,-4.7c10.8,-5.6 16.1,-16.4 13.9,-28.4c-0.9,-4.9 -2.2,-9.6 -2.1,-14.7c0.1,-9.9 0,-19.7 0,-29.6c0,-4.8 0,-9.6 0,-14.3c0,-4.1 0.7,-4.9 4.4,-6.1c2.1,-0.6 0.9,-2.1 1.1,-3.2zm-18.6,51.4c-1.7,1.7 -3.5,3.3 -5.4,4.7c-5.4,4.2 -11.5,5.2 -18.1,3.8c-4.9,-1.1 -8.4,-4 -10.8,-8.5c-5.8,-11 -2.3,-29.1 7.2,-37.1c5,-4.2 11.1,-5.8 17.4,-6.2c3.2,-0.2 6.4,0 9.7,-0.1c1.4,0 1.2,0.8 1.2,1.6c0,6.5 0,13 0,19.5c0,6.3 0,12.7 0,19c0.1,1.5 -0.3,2.4 -1.2,3.3z" class="st0"/>
     <path id="svg_72" d="m1233.044747,1397.136467c-6.2,-12.4 -19,-18.5 -32.3,-15.3c-5,1.2 -9.2,4.1 -13.4,7.1c-0.6,0.4 -1.1,1 -2,1.2c0,-1.9 -0.1,-3.7 0,-5.5c0.1,-1.3 -0.3,-1.8 -1.7,-1.7c-4.7,0.1 -9.4,0 -14.2,0c-0.8,0 -1.9,-0.2 -1.6,1.1c0.3,1.1 -1.1,2.9 1.4,3.2c2.9,0.4 3.8,1.4 4.2,4.3c0.1,0.6 0.1,1.3 0.1,2c0,27.2 0,54.4 0,81.6c0,0.8 -0.1,1.7 -0.2,2.5c-0.1,1.8 -1.1,3.1 -2.7,3.4c-2.2,0.4 -2.4,1.7 -2.2,3.4c0,0.4 0.1,0.7 0.1,1.1c7.3,0 14.6,0 21.9,0c0,-0.5 0.1,-1.1 0.1,-1.6c0.3,-1.5 -0.2,-2.3 -1.9,-2.7c-2.2,-0.5 -3.4,-2 -3.4,-4.4c0,-7.5 0,-15.1 -0.1,-22.6c0,-1.2 0.5,-1.3 1.5,-1.3c3.9,0 7.8,0 11.7,-0.1c4.3,-0.1 8.5,-0.4 12.5,-1.8c23.6,-8 31.6,-34.9 22.2,-53.9zm-15.9,37c-4.7,6.2 -11.3,8.7 -18.8,9.6c-3.8,0.4 -7.5,0.3 -11.3,0.3c-1.3,0 -1.8,-0.5 -1.8,-1.9c0.1,-6.6 0,-13.3 0,-19.9c0,-6.6 0,-13.1 0,-19.7c0,-0.7 -0.1,-1.4 0.6,-2c4.2,-3.9 8.7,-7.5 14.5,-9c6.9,-1.7 12.8,0.3 17.6,5.3c4.5,4.6 6.1,10.4 6,16.7c0,7.7 -2.2,14.6 -6.8,20.6z" class="st0"/>
     <path id="svg_73" d="m1467.644747,1420.736467c-2.9,-3.9 -6.8,-6.4 -11.5,-7.6c0.1,-0.6 0.6,-0.6 1,-0.9c4.4,-2.8 7.1,-6.7 8,-11.8c1.3,-7.6 -2.5,-13.8 -9.9,-16c-3.6,-1.1 -7.3,-1.6 -11,-1.6c-11.8,-0.1 -23.5,0 -35.3,0c-0.6,0 -1.5,-0.1 -1.4,0.9c0.2,1.1 -0.9,2.7 0.8,3.3c4.1,1.4 4.8,2.4 4.8,6.7c0,15.9 0,31.8 0,47.7c0,0.8 0,1.6 -0.1,2.3c-0.3,3 -1.2,4 -4.1,4.9c-1.7,0.5 -0.7,2 -0.9,3c-0.2,1.1 0.6,1 1.4,1c13,0 25.9,0 38.9,-0.1c8.6,-0.1 15.2,-4 19.9,-11.1c4.4,-6.5 4.1,-14.5 -0.6,-20.7zm-42.7,-27.5c0,-1.2 0.3,-1.6 1.5,-1.5c3.2,0.1 6.3,0 9.5,0c0,0 0,0.1 0,0.1c3.1,0 6.2,-0.1 9.3,0c4.2,0.2 6.7,1.9 7.7,5c1.3,4.1 0.2,7.7 -3.1,10.2c-2.1,1.6 -4.5,2.5 -7.1,2.5c-5.4,0.1 -10.9,0 -16.3,0c-1.1,0 -1.5,-0.3 -1.5,-1.4c0,-4.9 0,-9.9 0,-14.9zm34,41.5c-0.7,3.6 -3.5,5.8 -6.6,7.4c-2.4,1.2 -5,1.9 -7.8,1.9c-6,0 -11.9,0 -17.9,0c-1.5,0 -1.8,-0.5 -1.8,-1.8c0.1,-3.8 0,-7.5 0,-11.3c0,-3.8 0,-7.6 0,-11.5c0,-1 0.2,-1.6 1.4,-1.5c7.2,0.4 14.4,-0.2 21.6,0.6c0.5,0.1 0.9,0.1 1.4,0.2c9.2,2 11.5,7.3 9.7,16z" class="st0"/>
     <path id="svg_74" d="m1392.844747,1448.736467c-2.4,-0.5 -3.5,-2.1 -3.6,-4.5c-0.1,-0.8 -0.1,-1.6 -0.1,-2.3c0,-11.5 0,-23.1 0,-34.6c0,-2.5 -0.1,-5 -0.3,-7.5c-1,-8.5 -5.1,-14.4 -13.4,-17c-12.6,-4.1 -24.6,-2 -36.3,3.7c-0.8,0.4 -0.9,1 -0.9,1.8c0,3.2 0,6.5 0,9.7c0,0.7 -0.6,1.9 0.8,2c1.2,0 2.6,0.8 3.4,-1c0.9,-1.9 2.3,-3.5 4,-4.7c5.7,-4.2 12.2,-5.8 19.2,-4.3c6,1.2 10.1,4.7 11.5,10.9c0.3,1.4 -0.1,1.7 -1.4,1.8c-7.5,0.8 -15.1,1.8 -22.4,4c-9,2.6 -16.3,7.5 -20.1,16.6c-5.7,13.7 1.9,28 16.1,30.2c3.7,0.6 7.5,0.4 11.2,-0.3c6.1,-1.2 11.5,-3.8 16.8,-7.8c0,2.2 0.1,4.1 0,5.9c-0.1,1.3 0.3,1.7 1.7,1.7c4.4,-0.1 8.8,0 13.3,-0.1c0.7,0 1.9,0.6 1.9,-0.8c-0.1,-1.4 0.7,-3 -1.4,-3.4zm-15.5,-33.8c0,2.3 0,4.7 0,7c0,3 -0.1,6.1 0,9.1c0,1.2 -0.4,2 -1.1,2.9c-4.4,5.2 -9.7,8.7 -16.5,9.6c-5,0.7 -9.4,-0.4 -12.8,-4.4c-3.5,-3.9 -3.6,-8.2 -1.9,-12.9c2,-5.3 6.1,-8.4 11.1,-10.5c5.5,-2.4 11.3,-3.3 17.1,-4.3c1.3,-0.2 2.9,-1.1 3.7,-0.4c0.9,0.9 0.3,2.6 0.4,3.9z" class="st0"/>
     <path id="svg_75" d="m1155.744747,1415.736467c-0.5,-10.8 -4.8,-19.9 -13.1,-27.1c-11.1,-9.6 -26.5,-10.9 -38.5,-3.5c-17.7,11.1 -23.2,34.9 -12.3,53.1c6.6,11 16.2,17.3 27.9,17.7c8,0 14.3,-1.7 19.7,-5.7c11.7,-8.5 16.9,-20.2 16.3,-34.5zm-16.7,20c-4.8,8.8 -13.1,12.6 -22.9,10.5c-6.6,-1.4 -10.7,-5.6 -13.5,-11.5c-2.5,-5.4 -3.3,-11.1 -3.4,-17.5c0,-5.6 1,-11.6 4,-17.2c4.1,-7.9 11.7,-11.6 20.5,-10.5c8.8,1.1 14.3,6.1 17.4,14c4.3,11 3.6,21.9 -2.1,32.2z" class="st0"/>
     <path id="svg_76" d="m1353.644747,1352.136467c-0.5,-5.4 -3.9,-9.3 -8.8,-10.1c-4.8,-0.8 -9.6,1.6 -11.6,6c-1.7,3.7 -1.9,7.5 -0.6,11.4c1.5,4.6 5.2,7.3 9.9,7.4c4.8,0.1 8.8,-2.7 10.4,-7.3c0.6,-1.7 0.8,-3.5 0.8,-5.6c0,-0.5 0,-1.1 -0.1,-1.8zm-4.8,8.3c-1.3,2.4 -3.4,3.7 -6.2,3.6c-2.8,-0.1 -4.7,-1.5 -6,-3.9c-1,-1.8 -1.4,-3.8 -1.4,-5.4c0,-2.9 0.5,-5.1 1.8,-7.1c2.8,-4.2 8.9,-4.2 11.5,0.1c2.6,4.2 2.5,8.5 0.3,12.7z" class="st0"/>
     <path id="svg_77" d="m1298.044747,1364.536467c-2.4,-6.8 -4.7,-13.6 -7,-20.5c-0.4,-1.1 -0.7,-1.9 -2.1,-1.8c-1.3,0.1 -2.4,0 -3,1.7c-2.2,6.8 -4.5,13.5 -6.8,20.2c-0.7,2.1 -0.6,2.2 1.6,2.1c0.8,0 1.2,-0.3 1.4,-1.1c0.2,-0.9 0.5,-1.7 0.8,-2.6c1.3,-3.9 1.3,-3.9 5.4,-3.9c4.2,0 4.2,0 5.6,3.9c0.2,0.7 0.5,1.3 0.7,2c0.3,1.1 0.8,1.9 2.1,1.5c1.5,0.5 1.8,0 1.3,-1.5zm-7.6,-8.3c-1.4,-0.1 -2.7,-0.1 -4.1,0c-1.1,0 -1.4,-0.3 -1,-1.3c0.9,-2.7 1.8,-5.5 2.7,-8.3c0.2,-0.2 0.3,-0.6 0.7,-0.4c0.9,2.8 1.8,5.7 2.7,8.5c0.4,1.1 0.4,1.7 -1,1.5z" class="st0"/>
     <path id="svg_78" d="m1288.744747,1346.236467c-0.2,0.1 -0.4,0.2 -0.7,0.4c0,-0.3 -0.1,-0.8 0.2,-0.9c0.4,-0.2 0.5,0.2 0.5,0.5z" class="st0"/>
     <path id="svg_79" d="m1431.544747,1364.436467c-2.3,-6.8 -4.6,-13.5 -6.9,-20.3c-0.4,-1.4 -1,-2.1 -2.2,-1.8c-1.2,0.1 -2.2,-0.3 -2.7,1.1c-2.4,7.2 -4.9,14.5 -7.3,21.7c-0.1,0.4 -0.4,0.8 0.1,1.1c0.7,0.6 2.9,0 3.2,-0.9c0.6,-1.7 1.2,-3.5 1.7,-5.3c0.3,-0.8 0.7,-1.3 1.6,-1.2c2,0.1 3.9,0.1 5.9,0c1,0 1.4,0.3 1.7,1.2c0.6,1.8 1.2,3.5 1.8,5.2c0.3,0.9 2.1,1.5 3.1,1c1.1,-0.6 0.2,-1.3 0,-1.8zm-7.1,-8.2c-1.6,0 -3.1,0 -4.7,0c-1,0 -1.1,-0.4 -0.8,-1.2c1,-3 2,-6 3.1,-9.3c1.1,3.4 2.1,6.4 3.2,9.4c0.3,0.7 0.1,1.1 -0.8,1.1z" class="st0"/>
     <path id="svg_80" d="m1205.844747,1348.236467c-0.4,-3.3 -2.9,-5.6 -6.6,-5.9c-2.2,-0.2 -4.4,-0.1 -6.6,0.1c-1.1,0.1 -1.7,0.5 -1.6,1.8c0.1,3.4 0,6.8 0,10.2c0,3.5 0,7 0,10.6c0,1.3 0.5,1.5 1.6,1.4c1,0 1.7,-0.1 1.7,-1.4c-0.1,-2.2 0,-4.4 0,-6.6c0,-1.1 0.3,-1.5 1.4,-1.4c1.7,0.1 3.5,0 5.1,-0.6c3.6,-1.4 5.5,-4.4 5,-8.2zm-10.9,6c-0.7,-0.3 -0.6,-0.8 -0.6,-1.3c0,-1.8 0,-3.7 0,-5.5c0,-2.6 0,-2.6 2.6,-2.6c3.8,0 5.8,1.7 5.8,4.7c-0.2,3.4 -4.6,6.1 -7.8,4.7z" class="st0"/>
    </g>
    <g id="svg_81">
     <path id="svg_82" d="m1192.544747,1052.336467c41.3,-17.9 46.2,-21.7 90.8,-37.7c14.7,-5.3 30.6,-10.3 42.2,-12.7c19.8,-4.2 31.2,-6.3 50.5,-5c27.9,2 43.3,9 59,20.6c2.2,1.7 4.3,3.4 6.2,5.2c2.4,-1 4.8,-1.7 7.3,-2.1c1.8,-0.4 3.7,-0.7 5.6,-0.9c2.4,-0.2 4.8,-0.2 7.4,0c-1.6,-1.8 -4.1,-4 -7.7,-6.8c-20.7,-15.2 -34.3,-22.4 -55.2,-27.5c-32.6,-7.8 -60,-2.9 -77.5,1.9c-42.4,11.5 -55.1,17.1 -148.7,57.2c-0.6,1.9 -1.1,3.7 -1.6,5.6l0,12.2c9.3,-4.4 17.2,-8.1 21.7,-10z" class="st1"/>
     <path id="svg_83" d="m1455.144747,1103.836467c-1.2,4.7 -2.5,9.4 -3.9,14c-8.7,28.7 -13.1,35.7 -23.7,71.2c-6.7,22.5 -21.8,69.6 -36.8,110.6c6.2,-0.8 12.4,-2 18.4,-3.4c30.6,-83.7 52.1,-157.7 62,-193c-6.4,0.1 -13.9,0.5 -16,0.6z" class="st1"/>
     <path id="svg_84" d="m1343.944747,1063.536467c17.7,5.7 33.2,3.2 38.6,-9.2c7.8,-19.6 23.3,-22.7 25.3,-21.9c-5,-2.9 -26.2,-10.2 -35.8,-16.7c-5.3,11.7 -29,16.4 -53.3,-3.1c2.8,10.2 6.8,9.1 -8.7,11.5c-15.5,2.4 9.2,3.8 12.7,11.4c4.3,7.7 3.4,23 21.2,28zm0,-25.4c0.1,-2.7 2.3,-4.5 4.3,-4.5c2,0.1 3.9,2.3 3.7,4.9c-0.1,2.7 -2.2,3.9 -4.2,3.7c-2,0 -3.9,-1.4 -3.8,-4.1zm-5.8,-3c5.5,32.4 35.7,19.4 34.2,-1.4l4,0.3c0,0 0.1,9.3 -2.3,17.2c-13.7,17.9 -31.2,8.2 -35.9,-2.1c-4.3,-9.5 -4.1,-12.9 0,-14z" class="st1"/>
     <path id="svg_85" d="m1373.944747,1051.236467c2.5,-7.9 2.3,-17.2 2.3,-17.2l-4,-0.3c1.5,20.8 -28.7,33.8 -34.2,1.4c-4.1,1 -4.3,4.5 -0.1,14c4.8,10.3 22.3,20 36,2.1z" class="st2"/>
     <path id="svg_86" d="m1347.744747,1042.336467c2,0.1 4.1,-1.1 4.2,-3.7c0.1,-2.7 -1.7,-4.8 -3.7,-4.9c-2,-0.1 -4.1,1.8 -4.3,4.5c-0.1,2.6 1.8,4 3.8,4.1z" class="st2"/>
     <path id="svg_87" d="m1479.944747,1103.636467c6.9,1.8 11.6,6.4 14.6,10.5c-3.4,-5.9 -9.7,-10.1 -14.6,-10.5z" class="st2"/>
     <path id="svg_88" d="m1406.244747,1091.336467c80.1,-28.9 92.6,7.2 93.4,22.3c2.4,-3 17.4,-22.1 16.8,-43.5c-1,-11.5 -8,-21.9 -28.2,-30.7c-12.2,-5.3 -24.9,-7.7 -33.1,-7c-1.4,0.1 -2.7,0.3 -3.7,0.5l-0.2,0l-0.3,0.1c-6.9,1.1 -14.5,5.9 -24.8,17.9c-9.7,10.8 -23.9,27.8 -30.1,36.4c-6.1,8.5 -5.1,15.5 -0.7,17.3c4.4,1.8 41.4,-6.2 60,-7.7c8.4,-0.7 15.7,-1 21.5,-0.3c1.8,0.2 3.5,0.5 5.1,1c-3.9,-9.3 -17.8,-22.4 -75.7,-6.3z" class="st2"/>
     <path id="svg_89" d="m1499.444747,1122.036467c0.9,-1 1.8,-2.1 2.6,-3.2c-1.2,1.1 -2.2,2.1 -3,2.8c0.2,0.3 0.4,0.5 0.4,0.4z" class="st2"/>
     <path id="svg_90" d="m1454.144747,1019.736467c-1.9,0.1 -3.7,0.4 -5.6,0.9c-2.5,0.4 -4.9,1.2 -7.3,2.1c-8.4,3.4 -16.3,10.1 -24.8,20.1c0,0 -21.1,27 -30,39.5c-1.9,2.7 -3.2,5.9 -3.9,9.1c-2,9.3 1,19.4 10,20.1c1.1,0.1 2.2,0.1 3.5,-0.1c0,0 40.7,-6.2 58.5,-7.6c0,0 0.2,0 0.6,0c2.1,-0.1 9.6,-0.5 16.1,-0.6c3.5,0 6.7,0 8.5,0.3c0.1,0 0.2,0 0.3,0c4.9,0.4 11.1,4.6 14.6,10.5c1.6,2.7 2.6,5.8 2.6,9.1c0,0 0.7,-0.6 1.9,-1.6c0.8,-0.7 1.8,-1.6 3,-2.8c9.1,-8.5 27.4,-28.5 27.1,-49.8c-1.2,-17 -13.2,-31.9 -35.8,-41.4c-10.9,-4.6 -22,-7.5 -31.8,-8c-2.7,0 -5.1,0 -7.5,0.2zm44.6,99.6c-5.3,-16.3 -16,-19.6 -16,-19.6c-0.2,-0.7 -0.5,-1.4 -0.8,-2.1c-1.6,-0.5 -3.3,-0.8 -5.1,-1c-5.8,-0.7 -13.1,-0.4 -21.5,0.3c-18.6,1.4 -55.6,9.5 -60,7.7c-4.4,-1.8 -5.4,-8.8 0.7,-17.3c6.2,-8.5 20.3,-25.6 30.1,-36.4c10.3,-12 17.9,-16.8 24.8,-17.9l0.3,-0.1l0.2,0c1,-0.2 2.2,-0.4 3.7,-0.5c8.2,-0.7 20.9,1.7 33.1,7c20.2,8.8 27.1,19.2 28.2,30.7c0.6,21.4 -14.4,40.6 -16.8,43.5c0.2,4.3 -0.5,6.9 -0.9,5.7z" class="st0"/>
     <path id="svg_91" d="m1406.244747,1091.336467c58,-16.2 71.8,-3 75.8,6.3c0.3,0.7 0.6,1.4 0.8,2.1c0,0 10.7,3.4 16,19.6c0.4,1.2 1.1,-1.4 0.9,-5.7c-0.9,-15.1 -13.4,-51.2 -93.5,-22.3z" class="st1"/>
    </g>
   </g>
  </g>
 </g>
</svg>