<?xml version="1.0" encoding="utf-8"?>
<!-- Generator: AdobeIllustrator 23.0.3, SVG Export Plug-In . SVG Version: 6.00 Build 0)  -->
<svg version="1.1" id="Слой_1" xmlns="http://www.w3.org/2000/svg" xmlns:xlink="http://www.w3.org/1999/xlink" x="0px" y="0px"
	 viewBox="0 0 800 800" style="enable-background:new 0 0 800 800;" xml:space="preserve">
<style type="text/css">
	.st0{fill:#00547C;}
	.st1{fill-rule:evenodd;clip-rule:evenodd;fill:#00547C;}
	.st2{fill:#FFFFFF;}
</style>
<g id="Слой_2">
</g>
<g>
	<g>
		<path class="st0" d="M32.8,515.1c7,0,14,0.1,21,0c1.6,0,2,0.5,2,2c0,1.7-0.2,2.8-2.2,3.3c-2.3,0.6-2.9,2.6-2.9,4.8
			c0,4.8,0,9.7,0,14.5c0,4.9,0,9.8,0,14.7c0,1.1,0.2,1.6,1.4,1.6c17.3,0,34.5,0,51.8,0c1.2,0,1.5-0.4,1.5-1.5c0-9.6,0-19.2,0-28.9
			c0-3.6-1-5.2-4.2-5.6c-0.7-0.1-0.8-0.5-0.9-1.1c-0.3-3.8-0.4-3.8,3.5-3.8c5.9,0,11.8,0,17.7,0c1.3,0,1.8,0.3,1.9,1.8
			c0,1.9-0.2,3.3-2.5,3.6c-1.4,0.2-2.2,1.4-2.4,2.8c-0.1,1.1-0.3,2.1-0.3,3.2c0,27.3,0,54.5,0,81.8c0,0.7,0.1,1.3,0.1,2
			c0.2,2.3,1.3,3.9,3.7,4.5c2.4,0.6,1.1,2.5,1.3,3.9c0.1,1.4-1.2,0.8-1.9,0.9c-6.5,0-12.9,0-19.4,0.1c-1.5,0-1.9-0.5-1.7-1.8
			c0.1-0.5,0.1-1.1,0-1.6c-0.1-0.8,0.3-1.1,1.1-1.3c3.2-0.8,4-1.9,4-5.2c0-14.1,0-28.2,0-42.3c0-1.5-0.5-1.7-1.8-1.7
			c-17,0-34.1,0-51.1,0c-1.4,0-1.8,0.3-1.8,1.8c0.1,14,0,28,0,42c0,3.5,0.7,4.4,3.9,5.5c2.2,0.7,0.9,2.5,1.1,3.8
			c0.2,1.3-1,0.9-1.7,0.9c-7.1,0-14.1,0-21.2,0c0-1.6,0-3.1,0-4.7c0.3-0.3,0.7-0.5,1.1-0.6c2.6-0.7,3.4-2.6,3.4-5.2
			c0-27.7,0-55.4,0-83.1c0-2.7-0.9-4.5-3.6-5.3c-0.3-0.1-0.6-0.3-0.9-0.5C32.8,518.4,32.8,516.7,32.8,515.1z"/>
		<path class="st0" d="M326.8,652c2.2-0.6,4.3-0.6,6.5,0C331.1,652,329,652,326.8,652z"/>
		<path class="st0" d="M650.6,575.1c5.3,0,10.5,0,15.8,0c1.3,0,1.9-0.2,1.9-1.7c-0.1-4.8,0-9.6,0-14.3c0-3-1-4.3-3.9-5.2
			c-1.9-0.6-0.8-2.2-1-3.3c-0.2-1.1,0.8-0.9,1.5-0.9c6.4,0,12.8,0,19.2,0c1.1,0,1.4,0.3,1.4,1.4c0.1,1.7,0,2.9-2.2,3.1
			c-2,0.2-2.9,1.6-3.1,3.6c-0.1,0.7-0.1,1.3-0.1,2c0,16.6,0,33.2,0,49.8c0,4.3,0.3,4.8,4.4,5.9c2,0.6,0.8,2.1,1,3.1
			c0.2,1.2-0.8,0.9-1.5,0.9c-6.3,0-12.7,0-19,0c-0.8,0-1.8,0.2-1.6-1.1c0.2-1.1-0.9-2.6,1.1-3.1c2.9-0.8,3.8-1.9,3.8-5
			c0-8.4,0-16.9,0-25.3c0-1.2-0.3-1.6-1.6-1.6c-10.6,0-21.3,0-31.9,0c-1.4,0-1.7,0.4-1.7,1.7c0.1,8.2,0,16.4,0,24.6
			c0,3.9,0.4,4.4,4.1,5.8c1.7,0.6,0.7,2,0.9,3.1c0.2,1.1-0.8,1-1.5,1c-6.3,0-12.7,0-19,0c-0.7,0-1.7,0.2-1.4-1
			c0.2-1.1-1-2.6,0.9-3.2c3.4-1,4.1-1.9,4.1-5.5c0-16.7,0-33.5,0-50.2c0-4-0.8-4.8-4.6-5.8c-2-0.5-0.7-2.1-1-3.1
			c-0.2-1,0.5-1.1,1.3-1.1c6.6,0,13.3,0,19.9,0c1.1,0,1.2,0.4,1.3,1.4c0.1,1.7-0.1,2.9-2.2,3.3c-1.7,0.3-2.7,1.6-2.8,3.3
			c-0.4,5.5-0.1,11.1-0.1,16.7c0,1.2,1,0.8,1.6,0.8C640,575.1,645.3,575.1,650.6,575.1z"/>
		<path class="st0" d="M584.7,612.4c-2,1.4-3.7,2.7-5.4,3.8c-8.1,5.1-16.9,6.3-26.2,3.8c-8.8-2.4-13-8.7-14.7-17.2
			c-0.5-2.6-0.7-5.3-0.7-8c0-11.5,0-23.1,0-34.6c0-4.4-0.4-4.9-4.5-6.3c-1.9-0.7-0.6-2.3-0.9-3.4c-0.2-1,0.7-0.9,1.3-0.9
			c4.7,0,9.4,0.1,14.2,0c1.4,0,1.7,0.4,1.7,1.7c0,13.8-0.1,27.6,0,41.4c0,3.7-0.1,7.4,1.5,10.9c3.1,6.8,10.4,10,18.2,7.7
			c5.8-1.7,10.4-5.4,14.8-9.4c0.6-0.5,0.5-1.1,0.5-1.8c0-13.7,0-27.4,0-41.1c0-3.2-0.9-4.4-4.1-5.1c-2.3-0.5-0.9-2.2-1.2-3.3
			c-0.3-1.3,0.8-1,1.5-1c4.7,0,9.3,0.1,14,0c1.4,0,1.6,0.5,1.6,1.8c0,18.8,0,37.7,0,56.5c0,1.4,0,2.7,0.2,4.1
			c0.4,2.2,1.8,3.2,3.9,3.4c2.2,0.2,1.5,1.9,1.5,3.1c0.1,1.5-1.2,1-1.9,1.1c-4.7,0-9.3,0-14,0c-1.2,0-1.6-0.3-1.5-1.5
			C584.7,616.2,584.7,614.5,584.7,612.4z"/>
		<path class="st0" d="M412.6,513.7c0.1,6-0.6,11.9-0.8,17.9c0,1.5-1,1.3-2,1.3c-1.2,0.1-1.2-0.6-1.2-1.5c0.5-7.1,1-14.2,1.5-21.3
			c0.1-0.9,0.4-1.2,1.3-1.3c2.8-0.1,2.8-0.2,3.7,2.6c1.9,5.4,3.9,10.7,5.4,16.2c0.6-0.1,0.5-0.5,0.6-0.9c1.6-5.6,3.8-10.9,5.8-16.4
			c0.5-1.3,3.1-2.2,4.3-1.5c0.5,0.3,0.3,0.8,0.4,1.3c0.5,7,0.9,13.9,1.4,20.9c0.1,0.9,0.2,1.8-1.3,1.7c-1.2-0.1-1.9-0.2-1.9-1.6
			c-0.2-5.7-0.5-11.3-0.8-17c-0.4-0.3-0.1-0.8-0.2-1.4c0,0.7-0.2,1-0.5,1.4c-2,5.7-4.1,11.3-6.1,17c-0.3,0.9-0.6,1.6-1.8,1.5
			c-1.1,0-1.4-0.7-1.6-1.5c-1.8-5.8-4.2-11.4-5.6-17.4C413,514,413.2,513,412.6,513.7z"/>
		<path class="st0" d="M552.3,514.3c-2.5,4.2-5.1,8.3-7.7,12.4c-1,1.6-2.1,3.1-2.9,4.7c-0.8,1.7-2.2,1.5-3.6,1.5
			c-0.8,0-0.7-0.6-0.7-1.2c0-7.2,0-14.3,0-21.5c0-1.3,0.6-1.3,1.5-1.3c1.1,0,1.5,0.3,1.4,1.4c-0.1,4.8,0,9.6-0.1,14.3
			c0,1.1,0,2.2,0.1,3.4c3-5.4,6.5-10.6,9.7-15.8c0.4-0.7,1-1.4,1.3-2.1c0.8-1.7,2.2-1.1,3.4-1.1c0.7,0,0.5,0.7,0.5,1.1
			c0,7.2,0,14.3,0,21.5c0,1.3-0.8,1.2-1.6,1.2c-1.1,0.1-1.4-0.3-1.4-1.4C552.3,525.8,552.3,520.1,552.3,514.3z"/>
		<path class="st0" d="M515.1,528c3.5-6,7.4-11.6,10.9-17.4c0.8-1.3,1.6-1.8,3.2-1.7c0.8,0.1,1.1,0.3,1.1,1.2c0,7.2,0,14.5,0,21.7
			c0,1.4-0.9,1.1-1.7,1.1c-1,0.1-1.4-0.3-1.3-1.3c0.1-5.3,0.1-10.6,0.1-15.9c0-0.5,0-1-0.2-1.6c-2.1,3.9-4.5,7.6-6.8,11.3
			c-1.4,2.2-2.7,4.3-4.1,6.5c-0.5,0.9-2.8,1.4-3.6,0.9c-0.4-0.3-0.3-0.7-0.3-1.1c0-7.2,0-14.3,0-21.5c0-1.3,0.7-1.2,1.6-1.3
			c1.1-0.1,1.4,0.3,1.4,1.4c-0.1,5.6-0.1,11.2-0.1,16.8C515.1,527.5,515.1,527.8,515.1,528z"/>
		<path class="st0" d="M505.1,521.1c0,3.5-0.1,6.9,0,10.4c0,1.5-0.7,1.4-1.7,1.5c-1.2,0-1.6-0.3-1.5-1.5c0.1-2.7,0-5.5,0-8.2
			c0-1.1-0.2-1.5-1.4-1.4c-2.9,0.1-5.9,0.1-8.8,0c-1.1,0-1.3,0.4-1.3,1.4c0.1,2.8,0,5.6,0,8.4c0,1.4-0.7,1.4-1.7,1.4
			c-1.1,0-1.6-0.1-1.6-1.4c0.1-7.1,0.1-14.1,0-21.2c0-1.3,0.6-1.4,1.6-1.4c1,0,1.7,0,1.6,1.4c-0.1,2.4,0,4.8,0,7.2
			c0,1,0.2,1.5,1.4,1.5c2.9-0.1,5.9-0.1,8.8,0c1.1,0,1.3-0.4,1.3-1.3c-0.1-2.4,0.1-4.9,0-7.3c-0.1-1.4,0.7-1.3,1.7-1.4
			c1,0,1.7,0,1.6,1.4C505.1,513.9,505.1,517.5,505.1,521.1z"/>
		<path class="st0" d="M439.5,520.9c0-3.5,0-7,0-10.6c0-1.1,0.3-1.4,1.4-1.4c4.8,0.1,9.7,0.1,14.5,0c1.1,0,1.6,0.2,1.6,1.5
			c-0.1,7-0.1,14,0,20.9c0,1.3-0.5,1.6-1.7,1.6c-1.3,0-1.6-0.4-1.6-1.6c0.1-5.9,0-11.8,0.1-17.7c0-1.7-0.5-2-2-1.9
			c-2.3,0.1-4.7,0.1-7,0c-1.6-0.1-2.1,0.3-2.1,2c0.1,5.8,0,11.7,0.1,17.5c0,1.3-0.3,1.7-1.7,1.7c-1.3,0-1.6-0.5-1.6-1.7
			C439.5,527.9,439.5,524.4,439.5,520.9z"/>
		<path class="st0" d="M305.8,521c0-3.5,0-7,0-10.6c0-1.1,0.3-1.5,1.4-1.4c4.9,0.1,9.8,0,14.7,0c1,0,1.4,0.2,1.4,1.3
			c0,7.1-0.1,14.2,0,21.3c0,1.4-0.7,1.4-1.7,1.4c-1,0-1.7-0.1-1.6-1.4c0.1-6,0-12.1,0.1-18.1c0-1.3-0.3-1.8-1.7-1.7
			c-2.6,0.1-5.1,0.1-7.7,0c-1.4-0.1-1.7,0.5-1.7,1.8c0.1,5.9,0,11.8,0.1,17.7c0,1.3-0.2,1.8-1.7,1.8c-1.4,0-1.7-0.6-1.6-1.8
			C305.8,527.8,305.8,524.4,305.8,521z"/>
		<path class="st0" d="M298.8,521c0,3.5-0.1,7,0,10.6c0,1.3-0.6,1.4-1.6,1.4c-1,0-1.6-0.1-1.6-1.4c0.1-6,0-12.1,0.1-18.1
			c0-1.3-0.3-1.8-1.7-1.7c-2.6,0.1-5.3,0.1-7.9,0c-1.3,0-1.6,0.4-1.6,1.6c0.1,6,0,11.9,0,17.9c0,1.1-0.1,1.7-1.5,1.7
			c-1.4,0-1.7-0.4-1.7-1.7c0.1-6.9,0.1-13.7,0-20.6c0-1.4,0.4-1.7,1.7-1.7c4.7,0.1,9.4,0.1,14.2,0c1.3,0,1.6,0.4,1.6,1.6
			C298.8,514,298.8,517.5,298.8,521z"/>
		<path class="st0" d="M379.1,532.7c-3.3,0.5-3.3,0.5-4.4-2.4c-0.6-1.7-1.2-3.4-1.9-5c-1.1-2.3-3-3.3-5.5-3.3c-1,0-1.2,0.4-1.2,1.3
			c0,2.7-0.1,5.4,0,8.1c0,1.3-0.5,1.5-1.7,1.6c-1.3,0-1.4-0.5-1.4-1.6c0-7,0-14,0-20.9c0-1.2,0.4-1.5,1.5-1.5c1.1,0,1.6,0.2,1.6,1.5
			c-0.1,2.6,0,5.1,0,7.7c0,0.5-0.2,1.2,0.5,1.4c0.6,0.1,0.8-0.4,1.1-0.8c1.9-2.4,3.8-4.9,5.7-7.4c1.9-2.5,1.9-2.5,5.6-2.2
			c-3,3.6-5.8,7.1-8.9,10.8c4.9,0.8,6.1,4.7,7.4,8.5C378,529.9,378.6,531.3,379.1,532.7z"/>
		<path class="st0" d="M268.7,523.1c1.3-3.6,2.5-7,3.8-10.3c0.3-0.7,0.5-1.4,0.8-2.2c0.6-1.6,1.6-2.1,3.2-1.7
			c1.1,0.3,0.4,0.9,0.2,1.4c-1.8,4.5-3.7,9.1-5.5,13.6c-0.9,2.1-1.8,4.2-3.1,6c-1.5,2.2-3.5,3.5-6.3,3.3c-0.6,0-1.3-0.1-1.1-1
			c0.1-0.7-0.2-1.8,1.2-1.8c2.6,0,3.7-1.8,4.8-3.8c0.4-0.8,0.1-1.5-0.2-2.2c-2.3-4.5-4.5-9.1-6.7-13.7c-0.3-0.6-1.3-1.2-0.4-1.9
			c0.8-0.6,3.1,0.1,3.4,0.9c1.8,4,3.6,7.9,5.4,11.9C268.2,522.1,268.4,522.5,268.7,523.1z"/>
		<path class="st0" d="M224,520.9c0-3.5,0-6.9,0-10.4c0-1.2,0.3-1.6,1.5-1.5c3.3,0.1,6.6,0.1,9.9,0c1,0,1.5,0.2,1.5,1.3
			c0,1.3-0.5,1.5-1.6,1.5c-2.1-0.1-4.2,0.1-6.3-0.1c-1.6-0.1-1.8,0.5-1.8,1.9c0.1,5.9,0,11.7,0,17.6c0,1.1,0,1.8-1.5,1.8
			c-1.3,0-1.8-0.3-1.8-1.7C224,527.8,224,524.3,224,520.9z"/>
		<path class="st0" d="M546.6,507.9c-2.2,0-3.8-0.4-4.6-2.3c-0.2-0.4-0.8-1.2,0.1-1.5c0.6-0.2,1.5-0.4,2.1,0.4
			c1.8,2.4,2.3,2.4,4.1,0c0.6-0.8,1.5-0.5,2.1-0.3c0.9,0.3,0.2,1,0.1,1.5C549.9,507.1,548.5,507.9,546.6,507.9z"/>
		<path class="st0" d="M428.4,514.4c0-0.6,0.2-1,0.5-1.5c0.3,0.5,0.2,1,0.1,1.5C428.8,514.4,428.6,514.4,428.4,514.4z"/>
		<path class="st0" d="M412.6,513.7c0-0.3-0.2-0.9,0.2-0.9c0.6,0,0.5,0.7,0.5,1.1C413,513.9,412.8,513.8,412.6,513.7z"/>
		<path class="st0" d="M738.7,550c-8,0-15.4,2-22,6.4c-14.5,9.5-22.4,27-16.2,44.7c3.4,9.6,9.7,16.2,19.8,18.3
			c11,2.3,21.2,0.7,29.5-7.7c0,0,0.1,0,0.3-0.1c1.1,2.2,1.7,4.6,2.3,7.1c2.4,9.9-1.8,17.8-11.2,21.6c-5.7,2.3-11.6,2.6-17.6,1.9
			c-4-0.5-7.7-1.7-10.9-4.1c-2.8-2.1-3.4-4.5-2.1-7.7c0.2-0.4,0.4-0.7,0.6-1.1c0.6-1.6-1.1-1.8-1.6-2.6c-0.5-0.7-0.9-0.2-1.3,0.2
			c-3.6,3.3-7.1,6.6-10.7,9.8c-0.6,0.6-0.7,1-0.1,1.6c6.2,6.2,13.1,11.1,21.9,12.9c1.8,0.4,3.7,0.2,5.3,1c0.2,0,0.5,0,0.7,0
			c2.2-0.3,4.3-0.3,6.5,0c0.2,0,0.5,0,0.7,0c3.1-0.4,6.3-0.4,9.3-1.2c5.8-1.7,11.1-4,15.4-8.3c7-7,9.4-15.4,7.2-24.9
			c-1.2-5.3-1.9-10.6-1.8-16.1c0.1-12.2,0-24.5,0-36.7c0-1.9,0-3.8,0-5.7c0.1-2.5,0.8-3.5,3.1-4.4c0.5-0.2,1-0.4,1.4-0.8
			c0-1.3,0-2.6,0-3.9C757.7,549.9,748.2,549.9,738.7,550z M748.8,602.1c-2,2-4.2,3.9-6.5,5.6c-5.4,3.8-11.4,4.4-17.6,2.8
			c-5.2-1.3-8.6-4.8-10.7-9.5c-4.6-10.3-1.7-26.5,6.4-34.5c4.5-4.5,10.1-6.3,16.2-7.3c4.1-0.7,8.2-0.3,12.3-0.4
			c1.4,0,1.2,0.8,1.2,1.6c0,6.6,0,13.1,0,19.7c0,6.3,0,12.7,0,19C750,600.4,749.7,601.3,748.8,602.1z"/>
		<path class="st0" d="M368.8,550.7c0.2-1.2-0.9-0.8-1.5-0.8c-6.9,0-13.7,0-20.6,0.1c-5.2,0.1-10.5-0.1-15.7,1
			c-19,4.1-35.2,23.7-30.3,46c2.8,12.9,11.5,21.1,22.4,22.7c10.4,1.6,19.9,0.1,27.7-7.6c0.2-0.2,0.4-0.5,0.8-0.3
			c1,2.5,1.8,5.1,2.4,7.8c1.9,9.2-2.2,16.8-10.8,20.4c-6.6,2.8-13.4,3.1-20.4,1.8c-3.2-0.6-6.1-1.8-8.7-3.7
			c-2.9-2.1-3.6-4.5-2.2-7.8c0.2-0.4,0.5-0.8,0.6-1.3c0.3-1.3-1-1.5-1.6-2.3c-0.4-0.5-0.8-0.5-1.4,0c-3.6,3.4-7.3,6.7-11,10.1
			c-0.5,0.4-0.6,0.8-0.1,1.3c6.1,6.3,13,11.2,21.8,13c1.9,0.4,3.9,0.2,5.7,1c0.2,0,0.5,0,0.7,0c2.2-0.3,4.3-0.3,6.5,0
			c0.2,0,0.5,0,0.7,0c0.2-0.5,0.7-0.3,1.1-0.4c5.8-0.6,11.4-2,16.6-4.7c10.8-5.6,16.1-16.4,13.9-28.4c-0.9-4.9-2.2-9.6-2.1-14.7
			c0.1-9.9,0-19.7,0-29.6c0-4.8,0-9.6,0-14.3c0-4.1,0.7-4.9,4.4-6.1C369.8,553.3,368.6,551.8,368.8,550.7z M350.2,602.1
			c-1.7,1.7-3.5,3.3-5.4,4.7c-5.4,4.2-11.5,5.2-18.1,3.8c-4.9-1.1-8.4-4-10.8-8.5c-5.8-11-2.3-29.1,7.2-37.1
			c5-4.2,11.1-5.8,17.4-6.2c3.2-0.2,6.4,0,9.7-0.1c1.4,0,1.2,0.8,1.2,1.6c0,6.5,0,13,0,19.5c0,6.3,0,12.7,0,19
			C351.5,600.3,351.1,601.2,350.2,602.1z"/>
		<path class="st0" d="M283,563.8c-6.2-12.4-19-18.5-32.3-15.3c-5,1.2-9.2,4.1-13.4,7.1c-0.6,0.4-1.1,1-2,1.2c0-1.9-0.1-3.7,0-5.5
			c0.1-1.3-0.3-1.8-1.7-1.7c-4.7,0.1-9.4,0-14.2,0c-0.8,0-1.9-0.2-1.6,1.1c0.3,1.1-1.1,2.9,1.4,3.2c2.9,0.4,3.8,1.4,4.2,4.3
			c0.1,0.6,0.1,1.3,0.1,2c0,27.2,0,54.4,0,81.6c0,0.8-0.1,1.7-0.2,2.5c-0.1,1.8-1.1,3.1-2.7,3.4c-2.2,0.4-2.4,1.7-2.2,3.4
			c0,0.4,0.1,0.7,0.1,1.1c7.3,0,14.6,0,21.9,0c0-0.5,0.1-1.1,0.1-1.6c0.3-1.5-0.2-2.3-1.9-2.7c-2.2-0.5-3.4-2-3.4-4.4
			c0-7.5,0-15.1-0.1-22.6c0-1.2,0.5-1.3,1.5-1.3c3.9,0,7.8,0,11.7-0.1c4.3-0.1,8.5-0.4,12.5-1.8C284.4,609.7,292.4,582.8,283,563.8z
			 M267.1,600.8c-4.7,6.2-11.3,8.7-18.8,9.6c-3.8,0.4-7.5,0.3-11.3,0.3c-1.3,0-1.8-0.5-1.8-1.9c0.1-6.6,0-13.3,0-19.9
			c0-6.6,0-13.1,0-19.7c0-0.7-0.1-1.4,0.6-2c4.2-3.9,8.7-7.5,14.5-9c6.9-1.7,12.8,0.3,17.6,5.3c4.5,4.6,6.1,10.4,6,16.7
			C273.9,587.9,271.7,594.8,267.1,600.8z"/>
		<path class="st0" d="M517.6,587.4c-2.9-3.9-6.8-6.4-11.5-7.6c0.1-0.6,0.6-0.6,1-0.9c4.4-2.8,7.1-6.7,8-11.8
			c1.3-7.6-2.5-13.8-9.9-16c-3.6-1.1-7.3-1.6-11-1.6c-11.8-0.1-23.5,0-35.3,0c-0.6,0-1.5-0.1-1.4,0.9c0.2,1.1-0.9,2.7,0.8,3.3
			c4.1,1.4,4.8,2.4,4.8,6.7c0,15.9,0,31.8,0,47.7c0,0.8,0,1.6-0.1,2.3c-0.3,3-1.2,4-4.1,4.9c-1.7,0.5-0.7,2-0.9,3
			c-0.2,1.1,0.6,1,1.4,1c13,0,25.9,0,38.9-0.1c8.6-0.1,15.2-4,19.9-11.1C522.6,601.6,522.3,593.6,517.6,587.4z M474.9,559.9
			c0-1.2,0.3-1.6,1.5-1.5c3.2,0.1,6.3,0,9.5,0c0,0,0,0.1,0,0.1c3.1,0,6.2-0.1,9.3,0c4.2,0.2,6.7,1.9,7.7,5c1.3,4.1,0.2,7.7-3.1,10.2
			c-2.1,1.6-4.5,2.5-7.1,2.5c-5.4,0.1-10.9,0-16.3,0c-1.1,0-1.5-0.3-1.5-1.4C474.9,569.9,474.9,564.9,474.9,559.9z M508.9,601.4
			c-0.7,3.6-3.5,5.8-6.6,7.4c-2.4,1.2-5,1.9-7.8,1.9c-6,0-11.9,0-17.9,0c-1.5,0-1.8-0.5-1.8-1.8c0.1-3.8,0-7.5,0-11.3
			c0-3.8,0-7.6,0-11.5c0-1,0.2-1.6,1.4-1.5c7.2,0.4,14.4-0.2,21.6,0.6c0.5,0.1,0.9,0.1,1.4,0.2C508.4,587.4,510.7,592.7,508.9,601.4
			z"/>
		<path class="st0" d="M442.8,615.4c-2.4-0.5-3.5-2.1-3.6-4.5c-0.1-0.8-0.1-1.6-0.1-2.3c0-11.5,0-23.1,0-34.6c0-2.5-0.1-5-0.3-7.5
			c-1-8.5-5.1-14.4-13.4-17c-12.6-4.1-24.6-2-36.3,3.7c-0.8,0.4-0.9,1-0.9,1.8c0,3.2,0,6.5,0,9.7c0,0.7-0.6,1.9,0.8,2
			c1.2,0,2.6,0.8,3.4-1c0.9-1.9,2.3-3.5,4-4.7c5.7-4.2,12.2-5.8,19.2-4.3c6,1.2,10.1,4.7,11.5,10.9c0.3,1.4-0.1,1.7-1.4,1.8
			c-7.5,0.8-15.1,1.8-22.4,4c-9,2.6-16.3,7.5-20.1,16.6c-5.7,13.7,1.9,28,16.1,30.2c3.7,0.6,7.5,0.4,11.2-0.3
			c6.1-1.2,11.5-3.8,16.8-7.8c0,2.2,0.1,4.1,0,5.9c-0.1,1.3,0.3,1.7,1.7,1.7c4.4-0.1,8.8,0,13.3-0.1c0.7,0,1.9,0.6,1.9-0.8
			C444.1,617.4,444.9,615.8,442.8,615.4z M427.3,581.6c0,2.3,0,4.7,0,7c0,3-0.1,6.1,0,9.1c0,1.2-0.4,2-1.1,2.9
			c-4.4,5.2-9.7,8.7-16.5,9.6c-5,0.7-9.4-0.4-12.8-4.4c-3.5-3.9-3.6-8.2-1.9-12.9c2-5.3,6.1-8.4,11.1-10.5
			c5.5-2.4,11.3-3.3,17.1-4.3c1.3-0.2,2.9-1.1,3.7-0.4C427.8,578.6,427.2,580.3,427.3,581.6z"/>
		<path class="st0" d="M205.7,582.4c-0.5-10.8-4.8-19.9-13.1-27.1c-11.1-9.6-26.5-10.9-38.5-3.5c-17.7,11.1-23.2,34.9-12.3,53.1
			c6.6,11,16.2,17.3,27.9,17.7c8,0,14.3-1.7,19.7-5.7C201.1,608.4,206.3,596.7,205.7,582.4z M189,602.4
			c-4.8,8.8-13.1,12.6-22.9,10.5c-6.6-1.4-10.7-5.6-13.5-11.5c-2.5-5.4-3.3-11.1-3.4-17.5c0-5.6,1-11.6,4-17.2
			c4.1-7.9,11.7-11.6,20.5-10.5c8.8,1.1,14.3,6.1,17.4,14C195.4,581.2,194.7,592.1,189,602.4z"/>
		<path class="st0" d="M403.6,518.8c-0.5-5.4-3.9-9.3-8.8-10.1c-4.8-0.8-9.6,1.6-11.6,6c-1.7,3.7-1.9,7.5-0.6,11.4
			c1.5,4.6,5.2,7.3,9.9,7.4c4.8,0.1,8.8-2.7,10.4-7.3c0.6-1.7,0.8-3.5,0.8-5.6C403.7,520.1,403.7,519.5,403.6,518.8z M398.8,527.1
			c-1.3,2.4-3.4,3.7-6.2,3.6c-2.8-0.1-4.7-1.5-6-3.9c-1-1.8-1.4-3.8-1.4-5.4c0-2.9,0.5-5.1,1.8-7.1c2.8-4.2,8.9-4.2,11.5,0.1
			C401.1,518.6,401,522.9,398.8,527.1z"/>
		<path class="st0" d="M348,531.2c-2.4-6.8-4.7-13.6-7-20.5c-0.4-1.1-0.7-1.9-2.1-1.8c-1.3,0.1-2.4,0-3,1.7
			c-2.2,6.8-4.5,13.5-6.8,20.2c-0.7,2.1-0.6,2.2,1.6,2.1c0.8,0,1.2-0.3,1.4-1.1c0.2-0.9,0.5-1.7,0.8-2.6c1.3-3.9,1.3-3.9,5.4-3.9
			c4.2,0,4.2,0,5.6,3.9c0.2,0.7,0.5,1.3,0.7,2c0.3,1.1,0.8,1.9,2.1,1.5C348.2,533.2,348.5,532.7,348,531.2z M340.4,522.9
			c-1.4-0.1-2.7-0.1-4.1,0c-1.1,0-1.4-0.3-1-1.3c0.9-2.7,1.8-5.5,2.7-8.3c0.2-0.2,0.3-0.6,0.7-0.4c0.9,2.8,1.8,5.7,2.7,8.5
			C341.8,522.5,341.8,523.1,340.4,522.9z"/>
		<path class="st0" d="M338.7,512.9c-0.2,0.1-0.4,0.2-0.7,0.4c0-0.3-0.1-0.8,0.2-0.9C338.6,512.2,338.7,512.6,338.7,512.9z"/>
		<path class="st0" d="M481.5,531.1c-2.3-6.8-4.6-13.5-6.9-20.3c-0.4-1.4-1-2.1-2.2-1.8c-1.2,0.1-2.2-0.3-2.7,1.1
			c-2.4,7.2-4.9,14.5-7.3,21.7c-0.1,0.4-0.4,0.8,0.1,1.1c0.7,0.6,2.9,0,3.2-0.9c0.6-1.7,1.2-3.5,1.7-5.3c0.3-0.8,0.7-1.3,1.6-1.2
			c2,0.1,3.9,0.1,5.9,0c1,0,1.4,0.3,1.7,1.2c0.6,1.8,1.2,3.5,1.8,5.2c0.3,0.9,2.1,1.5,3.1,1C482.6,532.3,481.7,531.6,481.5,531.1z
			 M474.4,522.9c-1.6,0-3.1,0-4.7,0c-1,0-1.1-0.4-0.8-1.2c1-3,2-6,3.1-9.3c1.1,3.4,2.1,6.4,3.2,9.4
			C475.5,522.5,475.3,522.9,474.4,522.9z"/>
		<path class="st0" d="M255.8,514.9c-0.4-3.3-2.9-5.6-6.6-5.9c-2.2-0.2-4.4-0.1-6.6,0.1c-1.1,0.1-1.7,0.5-1.6,1.8
			c0.1,3.4,0,6.8,0,10.2c0,3.5,0,7,0,10.6c0,1.3,0.5,1.5,1.6,1.4c1,0,1.7-0.1,1.7-1.4c-0.1-2.2,0-4.4,0-6.6c0-1.1,0.3-1.5,1.4-1.4
			c1.7,0.1,3.5,0,5.1-0.6C254.4,521.7,256.3,518.7,255.8,514.9z M244.9,520.9c-0.7-0.3-0.6-0.8-0.6-1.3c0-1.8,0-3.7,0-5.5
			c0-2.6,0-2.6,2.6-2.6c3.8,0,5.8,1.7,5.8,4.7C252.5,519.6,248.1,522.3,244.9,520.9z"/>
	</g>
	<g>
		<path class="st1" d="M242.5,219c41.3-17.9,46.2-21.7,90.8-37.7c14.7-5.3,30.6-10.3,42.2-12.7c19.8-4.2,31.2-6.3,50.5-5
			c27.9,2,43.3,9,59,20.6c2.2,1.7,4.3,3.4,6.2,5.2c2.4-1,4.8-1.7,7.3-2.1c1.8-0.4,3.7-0.7,5.6-0.9c2.4-0.2,4.8-0.2,7.4,0
			c-1.6-1.8-4.1-4-7.7-6.8c-20.7-15.2-34.3-22.4-55.2-27.5c-32.6-7.8-60-2.9-77.5,1.9c-42.4,11.5-55.1,17.1-148.7,57.2
			c-0.6,1.9-1.1,3.7-1.6,5.6V229C230.1,224.6,238,220.9,242.5,219z"/>
		<path class="st1" d="M505.1,270.5c-1.2,4.7-2.5,9.4-3.9,14c-8.7,28.7-13.1,35.7-23.7,71.2c-6.7,22.5-21.8,69.6-36.8,110.6
			c6.2-0.8,12.4-2,18.4-3.4c30.6-83.7,52.1-157.7,62-193C514.7,270,507.2,270.4,505.1,270.5z"/>
		<path class="st1" d="M393.9,230.2c17.7,5.7,33.2,3.2,38.6-9.2c7.8-19.6,23.3-22.7,25.3-21.9c-5-2.9-26.2-10.2-35.8-16.7
			c-5.3,11.7-29,16.4-53.3-3.1c2.8,10.2,6.8,9.1-8.7,11.5c-15.5,2.4,9.2,3.8,12.7,11.4C377,209.9,376.1,225.2,393.9,230.2z
			 M393.9,204.8c0.1-2.7,2.3-4.5,4.3-4.5c2,0.1,3.9,2.3,3.7,4.9c-0.1,2.7-2.2,3.9-4.2,3.7C395.7,208.9,393.8,207.5,393.9,204.8z
			 M388.1,201.8c5.5,32.4,35.7,19.4,34.2-1.4l4,0.3c0,0,0.1,9.3-2.3,17.2c-13.7,17.9-31.2,8.2-35.9-2.1
			C383.8,206.3,384,202.9,388.1,201.8z"/>
		<path class="st2" d="M423.9,217.9c2.5-7.9,2.3-17.2,2.3-17.2l-4-0.3c1.5,20.8-28.7,33.8-34.2,1.4c-4.1,1-4.3,4.5-0.1,14
			C392.7,226.1,410.2,235.8,423.9,217.9z"/>
		<path class="st2" d="M397.7,209c2,0.1,4.1-1.1,4.2-3.7c0.1-2.7-1.7-4.8-3.7-4.9c-2-0.1-4.1,1.8-4.3,4.5
			C393.8,207.5,395.7,208.9,397.7,209z"/>
		<path class="st2" d="M529.9,270.3c6.9,1.8,11.6,6.4,14.6,10.5C541.1,274.9,534.8,270.7,529.9,270.3z"/>
		<path class="st2" d="M456.2,258c80.1-28.9,92.6,7.2,93.4,22.3c2.4-3,17.4-22.1,16.8-43.5c-1-11.5-8-21.9-28.2-30.7
			c-12.2-5.3-24.9-7.7-33.1-7c-1.4,0.1-2.7,0.3-3.7,0.5l-0.2,0l-0.3,0.1c-6.9,1.1-14.5,5.9-24.8,17.9c-9.7,10.8-23.9,27.8-30.1,36.4
			c-6.1,8.5-5.1,15.5-0.7,17.3c4.4,1.8,41.4-6.2,60-7.7c8.4-0.7,15.7-1,21.5-0.3c1.8,0.2,3.5,0.5,5.1,1
			C528,255,514.1,241.9,456.2,258z"/>
		<path class="st2" d="M549.4,288.7c0.9-1,1.8-2.1,2.6-3.2c-1.2,1.1-2.2,2.1-3,2.8C549.2,288.6,549.4,288.8,549.4,288.7z"/>
		<path class="st0" d="M504.1,186.4c-1.9,0.1-3.7,0.4-5.6,0.9c-2.5,0.4-4.9,1.2-7.3,2.1c-8.4,3.4-16.3,10.1-24.8,20.1
			c0,0-21.1,27-30,39.5c-1.9,2.7-3.2,5.9-3.9,9.1c-2,9.3,1,19.4,10,20.1c1.1,0.1,2.2,0.1,3.5-0.1c0,0,40.7-6.2,58.5-7.6
			c0,0,0.2,0,0.6,0c2.1-0.1,9.6-0.5,16.1-0.6c3.5,0,6.7,0,8.5,0.3c0.1,0,0.2,0,0.3,0c4.9,0.4,11.1,4.6,14.6,10.5
			c1.6,2.7,2.6,5.8,2.6,9.1c0,0,0.7-0.6,1.9-1.6c0.8-0.7,1.8-1.6,3-2.8c9.1-8.5,27.4-28.5,27.1-49.8c-1.2-17-13.2-31.9-35.8-41.4
			c-10.9-4.6-22-7.5-31.8-8C508.9,186.2,506.5,186.2,504.1,186.4z M548.7,286c-5.3-16.3-16-19.6-16-19.6c-0.2-0.7-0.5-1.4-0.8-2.1
			c-1.6-0.5-3.3-0.8-5.1-1c-5.8-0.7-13.1-0.4-21.5,0.3c-18.6,1.4-55.6,9.5-60,7.7c-4.4-1.8-5.4-8.8,0.7-17.3
			c6.2-8.5,20.3-25.6,30.1-36.4c10.3-12,17.9-16.8,24.8-17.9l0.3-0.1l0.2,0c1-0.2,2.2-0.4,3.7-0.5c8.2-0.7,20.9,1.7,33.1,7
			c20.2,8.8,27.1,19.2,28.2,30.7c0.6,21.4-14.4,40.6-16.8,43.5C549.8,284.6,549.1,287.2,548.7,286z"/>
		<path class="st1" d="M456.2,258c58-16.2,71.8-3,75.8,6.3c0.3,0.7,0.6,1.4,0.8,2.1c0,0,10.7,3.4,16,19.6c0.4,1.2,1.1-1.4,0.9-5.7
			C548.8,265.2,536.3,229.1,456.2,258z"/>
	</g>
</g>
</svg>
