<svg id="Layer_1" data-name="Layer 1" xmlns="http://www.w3.org/2000/svg" viewBox="0 0 519.43 143.42"><defs><style>.cls-1{fill:#39597c;}.cls-2{fill:#fff;}</style></defs><path class="cls-1" d="M424.15,289.38a5.9,5.9,0,0,0-2.29-3.11h11.05a4.65,4.65,0,0,0-2.29,3,21,21,0,0,0-.28,4.09v19.13l18.11-23.71.71-1.09a4.73,4.73,0,0,0,.82-1.42h9.79a4.76,4.76,0,0,0-2.18,2.56,16.22,16.22,0,0,0-.44,4.53v22.22a16.43,16.43,0,0,0,.33,4,5.85,5.85,0,0,0,2.35,3.17H448.61a5.09,5.09,0,0,0,2.3-3.06,21.3,21.3,0,0,0,.27-4.1V293.8l-18.56,24.4a34.48,34.48,0,0,1-3.33,3.77,16.53,16.53,0,0,1-4.81,2.51V293.36A17.19,17.19,0,0,0,424.15,289.38Z" transform="translate(-161.23 -202.38)"/><path class="cls-1" d="M171.45,283.21v31a30.09,30.09,0,0,0,.38,5.83,7.17,7.17,0,0,0,3.27,4.35H161.23a8.22,8.22,0,0,0,3.34-4.51,23,23,0,0,0,.47-5.67V282.59a23.28,23.28,0,0,0-.62-6.46,6.78,6.78,0,0,0-3.11-3.65H175.1a11.63,11.63,0,0,0-2,1.57,4.86,4.86,0,0,0-1.42,3.32Z" transform="translate(-161.23 -202.38)"/><path class="cls-1" d="M207.81,283.21v31a30.09,30.09,0,0,0,.38,5.83,7.17,7.17,0,0,0,3.27,4.35H197.59a8.22,8.22,0,0,0,3.34-4.51,23,23,0,0,0,.47-5.67V282.59a23.28,23.28,0,0,0-.62-6.46,6.78,6.78,0,0,0-3.11-3.65h13.79a11.63,11.63,0,0,0-2,1.57,4.91,4.91,0,0,0-1.42,3.32Z" transform="translate(-161.23 -202.38)"/><path class="cls-1" d="M235.93,324.43a19.14,19.14,0,0,1-13.77-5.28,17.94,17.94,0,0,1-5.52-13.54q0-8.62,5.75-14a20.22,20.22,0,0,1,14.47-5.44,18.18,18.18,0,0,1,12.83,4.66,18.4,18.4,0,0,1,6.15,14.08,18.62,18.62,0,0,1-5.76,13.92A19.48,19.48,0,0,1,235.93,324.43Zm.07-33.29a10.55,10.55,0,0,0-8.63,3.81,14,14,0,0,0-3.19,9.26,17.31,17.31,0,0,0,3,10.27,10.44,10.44,0,0,0,9.11,5,11.13,11.13,0,0,0,8.78-3.81,13.36,13.36,0,0,0,3.19-9.11,18.28,18.28,0,0,0-2.95-10.5A10.69,10.69,0,0,0,236,291.14Z" transform="translate(-161.23 -202.38)"/><path class="cls-1" d="M378.48,324.83q-10,0-10-8.09V304a36.9,36.9,0,0,1-8.24,2.72,15.39,15.39,0,0,0-5.06,1.86,5.26,5.26,0,0,0-2.17,4.67q0,6.61,8.47,6.61a18.56,18.56,0,0,0,5.22-1l-4.28,5.6a24.4,24.4,0,0,1-3.89.39,14.07,14.07,0,0,1-9.18-3.11,10.27,10.27,0,0,1-3.81-8.4q0-5.76,3.42-7.78,1.63-.93,11.36-3.34,8.16-2,8.16-5.45a4.49,4.49,0,0,0-2.64-4,9.89,9.89,0,0,0-4.9-1.17q-3.89,0-10,3l4.82-7.54a33.24,33.24,0,0,1,7.89-.39,14,14,0,0,1,7.51,2.26q4,2.87,4,9.56v11.9c0,3.58.24,5.78.7,6.61q1.24,2.34,5.76,2.88Z" transform="translate(-161.23 -202.38)"/><path class="cls-1" d="M387.35,323.25c-.08-1.61-.08-9.66-.08-13.24v-11.9q0-6.67,4-9.56a11.52,11.52,0,0,1,7.51-2.26c14.42,1,16.69,16,14.42,19.1l-4.52-1.23c1.79-5.49-2.14-10.76-5.67-12.75-1.62-.91-5.07-1-6.47-.24A5.47,5.47,0,0,0,394,296.4c.11,2.28,2.72,4.1,8.16,5.45q9.74,2.41,11.36,3.34,3.42,2,3.42,7.78a10.27,10.27,0,0,1-3.81,8.4,14,14,0,0,1-9.18,3.11,24.51,24.51,0,0,1-3.89-.39l-4.28-5.6a18.64,18.64,0,0,0,5.22,1q8.48,0,8.47-6.62a5.23,5.23,0,0,0-2.17-4.66,15.13,15.13,0,0,0-5.06-1.87,36.9,36.9,0,0,1-8.24-2.72v12.75C394,321.79,390.78,323.25,387.35,323.25Z" transform="translate(-161.23 -202.38)"/><path class="cls-1" d="M271.16,287.18v19.29q0,8.55,5.36,11.51a12,12,0,0,0,5.92,1.48,9.82,9.82,0,0,0,8.16-4.2,13.94,13.94,0,0,0,3-8.95,15.71,15.71,0,0,0-3.74-10.58,12.05,12.05,0,0,0-16.18-2.56l4.28-6.62a14.12,14.12,0,0,1,3.89-.38q8.72,0,14,5.21t5.29,13.84a19.75,19.75,0,0,1-5.05,13.61,16.54,16.54,0,0,1-13,5.6,17.26,17.26,0,0,1-12-4.74v12.75c0,1.56.13,8.43.39,9.32a5.15,5.15,0,0,0,2.33,2.8l-4.9.23a14.16,14.16,0,0,0-2.64.23,2.17,2.17,0,0,0-1.64.78l-.23-52q0-4.91-2.65-6.38Z" transform="translate(-161.23 -202.38)"/><rect class="cls-1" x="9.18" y="92.4" width="34.12" height="7.33"/><path class="cls-1" d="M500.12,293.62v21.93a21.55,21.55,0,0,0,.27,4.12,5.08,5.08,0,0,0,2.31,3.08h-11a5.86,5.86,0,0,0,2.36-3.19,16.62,16.62,0,0,0,.33-4V293.18a16.37,16.37,0,0,0-.44-4.56,4.79,4.79,0,0,0-2.2-2.58h11a8.32,8.32,0,0,0-1.44,1.11,3.45,3.45,0,0,0-1,2.35Z" transform="translate(-161.23 -202.38)"/><path class="cls-1" d="M473.85,293.62v21.93a21.33,21.33,0,0,0,.28,4.12,5.08,5.08,0,0,0,2.31,3.08h-11a5.93,5.93,0,0,0,2.37-3.19,17.17,17.17,0,0,0,.33-4V293.18a16.37,16.37,0,0,0-.44-4.56,4.83,4.83,0,0,0-2.2-2.58h11a8,8,0,0,0-1.44,1.11,3.41,3.41,0,0,0-1,2.35Z" transform="translate(-161.23 -202.38)"/><path class="cls-1" d="M542.24,332.64v-9.9c3.19,0,5.34.07,5.34.07.64,4.19,2.31,9.05,4.07,9.83Z" transform="translate(-161.23 -202.38)"/><path class="cls-1" d="M501.48,332.6c1.77-.78,3.43-5.64,4.08-9.83,0,0,2.14-.07,5.33-.07v9.9Z" transform="translate(-161.23 -202.38)"/><path class="cls-1" d="M523.39,286a50,50,0,0,1,5,3.15,14.91,14.91,0,0,1,3.27,4.73l9.25,20.18a24.88,24.88,0,0,0,3,5.47,15,15,0,0,0,3.74,3.25H537.45a21.67,21.67,0,0,0-1.38-3.32l-11.28-24.91L518,313.72c-.86,2.54-1.71,4.13-1.71,5.18a3.32,3.32,0,0,0,2.1,3.22l-8.71-2.89Z" transform="translate(-161.23 -202.38)"/><path class="cls-1" d="M517.09,319.59a22.79,22.79,0,0,0-1.38,3.21H505.58c1.71-.95,3.36-2.2,3.82-3.09C511.33,315.93,517.09,319.59,517.09,319.59Z" transform="translate(-161.23 -202.38)"/><polygon class="cls-1" points="378.21 120.44 346.69 120.44 348.77 116.07 378.21 116.07 378.21 120.44"/><path class="cls-1" d="M338.55,332.64v-9.9c3.19,0,5.34.07,5.34.07.64,4.19,2.31,9.05,4.07,9.83Z" transform="translate(-161.23 -202.38)"/><path class="cls-1" d="M297.79,332.6c1.77-.78,3.44-5.64,4.08-9.83,0,0,2.15-.07,5.33-.07v9.9Z" transform="translate(-161.23 -202.38)"/><path class="cls-1" d="M319.7,286a50,50,0,0,1,5,3.15,14.91,14.91,0,0,1,3.27,4.73l9.25,20.18a24.88,24.88,0,0,0,3,5.47,15.21,15.21,0,0,0,3.74,3.25H333.76a21.67,21.67,0,0,0-1.38-3.32L321.1,294.59l-6.84,19.13c-.86,2.54-1.71,4.13-1.71,5.18a3.32,3.32,0,0,0,2.1,3.22l-8.71-2.89Z" transform="translate(-161.23 -202.38)"/><path class="cls-1" d="M313.4,319.59A22.79,22.79,0,0,0,312,322.8H301.89c1.71-.95,3.36-2.2,3.82-3.09C307.64,315.93,313.4,319.59,313.4,319.59Z" transform="translate(-161.23 -202.38)"/><polygon class="cls-1" points="174.52 120.44 143 120.44 145.08 116.07 174.52 116.07 174.52 120.44"/><rect class="cls-1" x="309.05" y="99.07" width="25.44" height="5.2"/><path class="cls-1" d="M547.59,226.5v-6.68c1-.48,2.64-1.19,4.59-2,2.7-1.11,4.21-1.63,6.64-2.55,5.09-1.93,4.86-2.07,8.55-3.45,2.31-.85,2.24-.74,9.45-3.06,6.92-2.23,7-2.35,9.7-3.11a79,79,0,0,1,9.41-2.21,74,74,0,0,1,7.74-.85,63.07,63.07,0,0,1,8-.13,55.84,55.84,0,0,1,8.89,1.19,57,57,0,0,1,6.51,1.88,60.14,60.14,0,0,1,9.49,4,58.36,58.36,0,0,1,10.17,6.85c1.65,1.38,2.95,2.63,3.88,3.57,1.22.1,2.51.25,3.87.47a43.45,43.45,0,0,1,8.77,2.38,32.19,32.19,0,0,1,9.91,5.88c2.13,1.89,4.78,4.24,6.34,8.34a17.75,17.75,0,0,1,1.15,6.91c-.14,4-1.61,6.76-3.06,9.51a38.08,38.08,0,0,1-6.77,8.94,50.49,50.49,0,0,1-4.34,4c.3-1.45.46-2.74.76-4.19a40.37,40.37,0,0,0,4-5.7c2.07-3.66,3.74-6.55,4-10.15.39-6.34-3.85-12.06-7.85-14.94-2.34-1.68-4.72-2.48-8.55-3.76a33.86,33.86,0,0,0-7.47-1.73,29.42,29.42,0,0,0-5.75,0,41.7,41.7,0,0,0-6.76-6.83A42.76,42.76,0,0,0,628.12,213C621,210.11,615,210,608.71,210a80.25,80.25,0,0,0-12.83.89,99.51,99.51,0,0,0-12.57,2.69c-5.49,1.45-9.56,2.9-13.6,4.34-3.06,1.09-5.44,2-10.08,3.83C554.64,223.64,550.51,225.31,547.59,226.5Z" transform="translate(-161.23 -202.38)"/><path class="cls-1" d="M579.8,222.74c0-.28,2.14.11,4.81-.77,1-.34,1.89-.63,2.29-1.4.82-1.53-.76-3.63-.89-3.79a37.66,37.66,0,0,0,3.38,2.28,24.69,24.69,0,0,0,6.92,3.13,16.37,16.37,0,0,0,6.83.46,10.19,10.19,0,0,0,4.28-1.49,9.6,9.6,0,0,0,2.85-2.89l15.23,7a14.92,14.92,0,0,0-5.62,3,14.61,14.61,0,0,0-3.29,3.93c-.79,1.37-.55,1.5-1.32,3a12.18,12.18,0,0,1-4,4.87,10.83,10.83,0,0,1-5.06,1.43,18.54,18.54,0,0,1-7.64-.66,14.73,14.73,0,0,1-5.4-2.92,11.07,11.07,0,0,1-2.83-3.4c-.95-1.83-.61-2.56-1.56-4.83a11.51,11.51,0,0,0-2.21-3.7C583.86,223.11,579.74,223.12,579.8,222.74Z" transform="translate(-161.23 -202.38)"/><path class="cls-2" d="M593.51,227.73a1.21,1.21,0,0,1,1.37-.59c.3.11.49.4.83,1.67s.7,2.49.83,2.94a7.59,7.59,0,0,0,2.23,3.27,6.8,6.8,0,0,0,4.47,1.23,6.72,6.72,0,0,0,5.41-3.43,15.21,15.21,0,0,0,1.36-3.51c.16-.85.26-2.55.59-2.9a.84.84,0,0,1,1-.24c.67.27.86,1.43.91,2.23a9.84,9.84,0,0,1-.74,4.23,9.7,9.7,0,0,1-3,4.46,9.18,9.18,0,0,1-7.53,1.71,9.18,9.18,0,0,1-3.85-2,9.39,9.39,0,0,1-2.82-3.62,10.14,10.14,0,0,1-1.21-4.3A2.91,2.91,0,0,1,593.51,227.73Z" transform="translate(-161.23 -202.38)"/><circle class="cls-2" cx="438.17" cy="26.12" r="2.11"/><path class="cls-1" d="M642.42,220.61a24.1,24.1,0,0,0-4.86,2.59,31,31,0,0,0-5,4.53c-1.84,1.92-3.09,3.47-4.43,5.14-.78,1-.93,1.18-4.85,6.41-1.36,1.81-2.62,3.68-4.06,5.43a21.71,21.71,0,0,0-3.22,4.46,11.3,11.3,0,0,0-1.24,3.71c-.19,1.32-.55,4,1.18,6a7,7,0,0,0,4.05,2,13.18,13.18,0,0,0,4.75.19,23.73,23.73,0,0,0,6.23-1.46c2.65-1,7.44-1.3,17-2,5-.36,6.52-.32,8.46.06,2.62.52,4.91.79,6.86,2.59a11.31,11.31,0,0,1,3.19,6.22,14.88,14.88,0,0,0,.34-8.28,13.19,13.19,0,0,0-2.34-4.76,17.16,17.16,0,0,0-6.3-4.64c-4.94-2.16-16.94-1.67-31.74,2.85,4.46-.82,8.23-1.41,11.06-1.83,5.35-.79,7.57-1,10.3-.85,5.89.28,8.05,1.76,9,2.55a10.58,10.58,0,0,1,2.68,3.41,50.88,50.88,0,0,0-6.81-.64,61.32,61.32,0,0,0-11.27.85c-3.8.56-7.6,1.35-8.64,1.57-2.43.52-4.24.77-7.88,1.28-3.17.45-4.3.52-5-.21-1.23-1.26-.36-4,0-5.07.94-2.89,2.59-4.51,4.94-7.06,2.18-2.36,4.22-4.85,6.34-7.28,6.33-7.24,6.08-7.59,8.09-9,3.77-2.62,6.7-2.81,6.89-4.6C646.31,223.19,644.23,221.66,642.42,220.61Z" transform="translate(-161.23 -202.38)"/><polygon class="cls-1" points="494.57 53.86 471.93 125.27 464.27 125.27 487.12 53.86 494.57 53.86"/></svg>